<svg width="415" height="415" viewBox="0 0 415 415" fill="none" xmlns="http://www.w3.org/2000/svg">
<path d="M120.533 29.0168H37.184V149.823H120.533V29.0168Z" fill="#E0E0E0"/>
<path d="M116.358 29.0168H33.0092V149.823H116.358V29.0168Z" fill="#F5F5F5"/>
<path d="M106.008 42.106H43.3675V136.743H106.008V42.106Z" fill="white"/>
<path d="M105.999 136.743C105.999 136.743 105.999 136.585 105.999 136.278C105.999 135.971 105.999 135.522 105.999 134.941C105.999 133.746 105.999 132.003 105.999 129.746C105.999 125.214 105.999 118.599 105.941 110.249C105.941 93.5659 105.883 69.9358 105.842 42.1059L106.049 42.3134L43.3758 42.33L43.5999 42.1059C43.5999 77.7959 43.5999 110.722 43.5501 136.726L43.3758 136.543L88.9594 136.643H101.559H104.879C105.634 136.643 106.024 136.643 106.024 136.643C106.024 136.643 105.659 136.643 104.92 136.643H101.65H89.0922L43.3675 136.95H43.16V136.767C43.16 110.747 43.16 77.8374 43.1102 42.1474V41.915H43.3509H105.974H106.24V42.1225C106.24 70.0022 106.165 93.6821 106.14 110.407C106.14 118.707 106.14 125.347 106.082 129.854C106.082 132.095 106.082 133.821 106.082 135C106.082 135.572 106.082 136.012 106.082 136.319C106.082 136.626 105.999 136.743 105.999 136.743Z" fill="#E0E0E0"/>
<path d="M116.59 29.05C116.164 29.8146 115.667 30.5372 115.104 31.208C114.133 32.5028 112.764 34.2707 111.195 36.188C109.626 38.1053 108.157 39.7819 107.045 40.9771C106.493 41.653 105.882 42.278 105.219 42.8446C105.686 42.108 106.216 41.4137 106.804 40.7696C107.925 39.4084 109.294 37.7401 110.822 35.8975L114.83 31.0254C115.364 30.3212 115.952 29.6607 116.59 29.05Z" fill="#E0E0E0"/>
<path d="M106.323 136.436C109.433 141.39 113.098 145.973 117.246 150.097L106.323 136.436Z" fill="white"/>
<path d="M117.246 150.097C116.55 149.591 115.91 149.013 115.337 148.371C113.875 146.893 112.49 145.342 111.187 143.723C109.891 142.105 108.68 140.421 107.56 138.677C107.06 137.975 106.634 137.224 106.29 136.436C106.847 137.087 107.36 137.774 107.825 138.494C108.738 139.789 110.033 141.548 111.535 143.474C113.038 145.4 114.482 147.001 115.536 148.18C116.151 148.778 116.722 149.419 117.246 150.097Z" fill="#E0E0E0"/>
<path d="M33.0008 149.732L43.9153 136.261L33.0008 149.732Z" fill="white"/>
<path d="M43.9153 136.261C42.2783 138.648 40.5134 140.945 38.6282 143.142C36.8643 145.432 34.9861 147.631 33.0008 149.732C34.6364 147.346 36.3985 145.049 38.2796 142.851C40.0418 140.558 41.923 138.358 43.9153 136.261Z" fill="#E0E0E0"/>
<path d="M33.0091 29.0499C34.8879 31.0632 36.6557 33.1773 38.3045 35.3828C40.0878 37.5009 41.7505 39.7177 43.2845 42.0228C41.4045 40.0077 39.6367 37.8908 37.9891 35.6816C36.2048 33.5672 34.5421 31.353 33.0091 29.0499Z" fill="#E0E0E0"/>
<path d="M86.486 61.3204H65.5119V120.873H86.486V61.3204Z" fill="#E0E0E0"/>
<path d="M334.266 289.338H185.538V357.929H334.266V289.338Z" fill="#F5F5F5"/>
<path d="M330.73 354.7H188.941V292.99H330.73V354.7ZM189.862 353.779H329.801V293.878H189.862V353.779Z" fill="#E0E0E0"/>
<path d="M370.603 289.338H334.266V357.929H370.603V289.338Z" fill="#E0E0E0"/>
<path d="M189.406 312.08H330.265C330.308 312.071 330.347 312.047 330.374 312.013C330.402 311.979 330.417 311.937 330.417 311.893C330.417 311.85 330.402 311.807 330.374 311.773C330.347 311.739 330.308 311.716 330.265 311.707H189.406C189.363 311.716 189.325 311.739 189.297 311.773C189.27 311.807 189.255 311.85 189.255 311.893C189.255 311.937 189.27 311.979 189.297 312.013C189.325 312.047 189.363 312.071 189.406 312.08Z" fill="#E0E0E0"/>
<path d="M260.296 311.872C260.686 305.668 260.703 299.446 260.346 293.239C260.346 293.188 260.326 293.14 260.29 293.104C260.254 293.068 260.206 293.048 260.155 293.048C260.105 293.048 260.056 293.068 260.02 293.104C259.984 293.14 259.964 293.188 259.964 293.239C259.603 299.445 259.62 305.668 260.014 311.872C260.014 311.91 260.029 311.946 260.055 311.972C260.082 311.999 260.118 312.014 260.155 312.014C260.193 312.014 260.229 311.999 260.255 311.972C260.281 311.946 260.296 311.91 260.296 311.872Z" fill="#E0E0E0"/>
<path d="M298.211 302.56C298.211 302.941 298.098 303.314 297.886 303.631C297.674 303.947 297.372 304.194 297.02 304.34C296.668 304.485 296.28 304.523 295.906 304.448C295.533 304.373 295.19 304.189 294.921 303.919C294.652 303.648 294.469 303.305 294.395 302.93C294.322 302.556 294.361 302.169 294.508 301.817C294.655 301.466 294.904 301.165 295.221 300.955C295.539 300.744 295.912 300.633 296.293 300.634C296.803 300.636 297.29 300.84 297.65 301.201C298.009 301.562 298.211 302.051 298.211 302.56Z" fill="#E0E0E0"/>
<path d="M224.283 302.56C224.281 302.939 224.167 303.309 223.955 303.623C223.744 303.937 223.444 304.181 223.093 304.325C222.743 304.469 222.358 304.506 221.986 304.431C221.615 304.356 221.274 304.173 221.007 303.904C220.739 303.636 220.558 303.294 220.484 302.923C220.411 302.551 220.449 302.166 220.595 301.816C220.74 301.466 220.986 301.167 221.301 300.957C221.616 300.747 221.986 300.634 222.365 300.634C222.618 300.634 222.868 300.684 223.101 300.781C223.334 300.878 223.546 301.02 223.724 301.199C223.902 301.378 224.043 301.59 224.139 301.824C224.235 302.057 224.284 302.307 224.283 302.56Z" fill="#E0E0E0"/>
<path d="M261.757 323.825C261.759 324.206 261.647 324.579 261.437 324.897C261.226 325.214 260.926 325.462 260.574 325.609C260.222 325.756 259.835 325.796 259.461 325.722C259.087 325.649 258.743 325.466 258.473 325.197C258.203 324.928 258.018 324.585 257.944 324.212C257.869 323.838 257.906 323.45 258.052 323.098C258.197 322.746 258.444 322.444 258.761 322.232C259.078 322.02 259.45 321.907 259.831 321.907C260.084 321.906 260.334 321.955 260.568 322.051C260.801 322.147 261.014 322.288 261.193 322.466C261.372 322.644 261.513 322.856 261.61 323.089C261.707 323.322 261.757 323.572 261.757 323.825Z" fill="#E0E0E0"/>
<path d="M203.317 357.938L195.664 400.998H199.972L214.09 357.938H203.317Z" fill="#E0E0E0"/>
<path d="M323.75 357.938L330.149 401.073H325.841L312.976 357.938H323.75Z" fill="#E0E0E0"/>
<path d="M352.501 357.938L359.755 401.073H355.447L341.728 357.938H352.501Z" fill="#E0E0E0"/>
<path d="M261.624 343.238C261.624 343.618 261.512 343.988 261.301 344.304C261.09 344.619 260.791 344.865 260.441 345.01C260.09 345.155 259.705 345.193 259.333 345.119C258.961 345.045 258.619 344.862 258.351 344.594C258.083 344.326 257.901 343.984 257.827 343.612C257.753 343.24 257.791 342.855 257.936 342.505C258.081 342.154 258.326 341.855 258.642 341.644C258.957 341.433 259.328 341.321 259.707 341.321C259.959 341.32 260.209 341.369 260.442 341.465C260.675 341.561 260.887 341.702 261.065 341.88C261.243 342.058 261.385 342.27 261.481 342.503C261.577 342.736 261.625 342.986 261.624 343.238Z" fill="#E0E0E0"/>
<path d="M189.406 333.303H330.265C330.308 333.294 330.347 333.271 330.374 333.237C330.402 333.203 330.417 333.16 330.417 333.116C330.417 333.073 330.402 333.03 330.374 332.996C330.347 332.962 330.308 332.939 330.265 332.93H189.406C189.363 332.939 189.325 332.962 189.297 332.996C189.27 333.03 189.255 333.073 189.255 333.116C189.255 333.16 189.27 333.203 189.297 333.237C189.325 333.271 189.363 333.294 189.406 333.303Z" fill="#E0E0E0"/>
<path d="M276.519 379.811L276.474 371.304L234.668 371.523L234.712 380.03L276.519 379.811Z" fill="#E0E0E0"/>
<path d="M281.533 401.263L281.464 388.041L234.869 388.285L234.938 401.507L281.533 401.263Z" fill="#F5F5F5"/>
<path d="M272.58 401.197C272.27 396.795 272.27 392.377 272.58 387.975C272.879 392.378 272.879 396.795 272.58 401.197Z" fill="#E0E0E0"/>
<path d="M274.531 401.197C274.232 396.795 274.232 392.378 274.531 387.975C274.841 392.377 274.841 396.795 274.531 401.197Z" fill="#E0E0E0"/>
<path d="M241.97 401.197C241.671 396.795 241.671 392.378 241.97 387.975C242.269 392.378 242.269 396.795 241.97 401.197Z" fill="#E0E0E0"/>
<path d="M243.929 401.197C243.63 396.795 243.63 392.378 243.929 387.975C244.228 392.378 244.228 396.795 243.929 401.197Z" fill="#E0E0E0"/>
<path d="M248.17 394.798C248.17 394.673 252.876 394.574 258.669 394.574C264.463 394.574 269.169 394.673 269.169 394.798C269.169 394.922 264.471 395.03 258.669 395.03C252.868 395.03 248.17 394.931 248.17 394.798Z" fill="#E0E0E0"/>
<path d="M299.039 387.972L298.994 379.464L241.501 379.765L241.545 388.273L299.039 387.972Z" fill="#EBEBEB"/>
<path d="M290.815 386.938C290.269 386.944 289.733 386.788 289.276 386.49C288.818 386.191 288.46 385.763 288.246 385.26C288.032 384.757 287.973 384.202 288.076 383.665C288.178 383.128 288.438 382.634 288.822 382.246C289.206 381.857 289.697 381.591 290.232 381.482C290.768 381.373 291.323 381.426 291.829 381.633C292.334 381.841 292.767 382.194 293.071 382.648C293.375 383.102 293.538 383.636 293.538 384.182C293.54 384.542 293.471 384.898 293.336 385.232C293.2 385.565 293 385.868 292.747 386.124C292.495 386.38 292.194 386.583 291.862 386.723C291.531 386.863 291.175 386.936 290.815 386.938Z" fill="#E0E0E0"/>
<path d="M283.345 385.037V383.335H244.858V385.037H283.345Z" fill="#E0E0E0"/>
<path d="M377.7 40.3463H156.521V261.525H377.7V40.3463Z" fill="#FAFAFA"/>
<path d="M377.7 261.525C377.7 259.931 377.625 172.972 377.517 40.3463L377.7 40.5372H156.546L156.762 40.3214C156.762 121.321 156.762 197.191 156.762 261.5L156.571 261.317L377.75 261.5L156.571 261.691H156.389V261.5C156.389 197.225 156.389 121.321 156.389 40.3214V40.1056H156.629H377.783H377.974V40.2882C377.775 172.972 377.708 259.931 377.7 261.525Z" fill="#263238"/>
<path d="M222.158 68.4667H224.581V73.123C223.23 74.085 221.609 74.5962 219.95 74.5838C216.348 74.5838 213.692 72.0938 213.692 68.6493C213.692 65.2048 216.348 62.7148 220 62.7148C220.899 62.6786 221.796 62.8413 222.625 63.1914C223.454 63.5415 224.196 64.0702 224.797 64.74L223.137 66.317C222.764 65.8999 222.306 65.5683 221.793 65.3449C221.28 65.1214 220.725 65.0113 220.166 65.0222C219.193 65.0222 218.26 65.4087 217.572 66.0967C216.884 66.7847 216.497 67.7178 216.497 68.6908C216.497 69.6638 216.884 70.5969 217.572 71.2849C218.26 71.9729 219.193 72.3594 220.166 72.3594C220.885 72.3734 221.596 72.2049 222.233 71.8697L222.158 68.4667Z" fill="#0284C7"/>
<path d="M235.446 70.6994H228.806C228.944 71.2416 229.27 71.7172 229.726 72.0411C230.182 72.3649 230.739 72.516 231.296 72.4673C231.703 72.4866 232.109 72.423 232.49 72.2803C232.871 72.1376 233.219 71.9188 233.512 71.6373L234.89 73.0898C234.426 73.5795 233.859 73.9612 233.231 74.2079C232.603 74.4546 231.928 74.5603 231.255 74.5174C228.2 74.5174 226.217 72.6001 226.217 69.9773C226.209 69.3648 226.327 68.7573 226.563 68.1921C226.799 67.6269 227.148 67.1159 227.589 66.6907C228.03 66.2654 228.553 65.9348 229.126 65.7193C229.699 65.5037 230.311 65.4077 230.923 65.4372C231.532 65.4051 232.142 65.5013 232.712 65.7196C233.283 65.9378 233.801 66.2733 234.233 66.7043C234.666 67.1353 235.003 67.6522 235.224 68.2217C235.444 68.7912 235.542 69.4006 235.513 70.0105C235.496 70.2097 235.463 70.4836 235.446 70.6994ZM228.74 69.2054H233.089C232.999 68.6938 232.732 68.2302 232.334 67.8962C231.936 67.5621 231.434 67.379 230.914 67.379C230.395 67.379 229.892 67.5621 229.494 67.8962C229.097 68.2302 228.829 68.6938 228.74 69.2054Z" fill="#0284C7"/>
<path d="M242.883 73.9613C242.26 74.3507 241.534 74.5444 240.8 74.5174C238.725 74.5174 237.48 73.4467 237.48 71.3551V67.728H236.127V65.7609H237.48V63.6195H240.036V65.7609H242.236V67.728H240.036V71.3219C240.016 71.4743 240.03 71.6293 240.077 71.7755C240.125 71.9218 240.204 72.0555 240.31 72.167C240.416 72.2784 240.545 72.3648 240.689 72.4196C240.833 72.4744 240.987 72.4964 241.14 72.4839C241.51 72.4912 241.873 72.3743 242.169 72.1519L242.883 73.9613Z" fill="#0284C7"/>
<path d="M248.651 62.914C248.655 62.7141 248.7 62.517 248.783 62.3351C248.866 62.1532 248.986 61.9902 249.134 61.8564C249.283 61.7225 249.458 61.6207 249.647 61.557C249.837 61.4934 250.037 61.4694 250.237 61.4864C250.433 61.4646 250.632 61.4836 250.821 61.5423C251.01 61.6009 251.185 61.698 251.334 61.8273C251.484 61.9567 251.605 62.1156 251.691 62.294C251.776 62.4724 251.824 62.6666 251.83 62.8642C251.808 63.2669 251.634 63.6461 251.344 63.9256C251.053 64.2051 250.667 64.364 250.264 64.3704C249.861 64.3767 249.47 64.2299 249.171 63.9597C248.872 63.6894 248.686 63.3158 248.651 62.914ZM249 65.57H251.49V74.3846H249V65.57Z" fill="#0284C7"/>
<path d="M262.903 69.3381V74.3845H260.346V69.7199C260.346 68.3006 259.69 67.6449 258.562 67.6449C257.433 67.6449 256.453 68.3919 256.453 70.0187V74.3762H253.897V65.5699H256.337V66.5991C256.714 66.2119 257.168 65.9083 257.67 65.7081C258.172 65.5079 258.711 65.4156 259.251 65.4371C261.334 65.4371 262.903 66.6489 262.903 69.3381Z" fill="#0284C7"/>
<path d="M275.56 73.9613C274.939 74.3496 274.217 74.5432 273.485 74.5174C271.402 74.5174 270.165 73.4467 270.165 71.3551V67.728H268.804V65.7609H270.165V63.6195H272.721V65.7609H274.913V67.728H272.721V71.3219C272.7 71.4738 272.712 71.6287 272.759 71.775C272.805 71.9213 272.884 72.0552 272.989 72.1669C273.094 72.2786 273.224 72.365 273.367 72.4199C273.51 72.4748 273.664 72.4967 273.817 72.4839C274.188 72.4912 274.55 72.3743 274.846 72.1519L275.56 73.9613Z" fill="#0284C7"/>
<path d="M276.041 69.9772C276.041 67.3212 278.092 65.4371 280.897 65.4371C283.702 65.4371 285.728 67.3212 285.728 69.9772C285.728 72.6332 283.702 74.5173 280.897 74.5173C278.092 74.5173 276.041 72.6332 276.041 69.9772ZM283.138 69.9772C283.102 69.5396 282.94 69.1217 282.671 68.7749C282.401 68.4282 282.037 68.1674 281.621 68.0248C281.206 67.8821 280.758 67.8636 280.332 67.9716C279.907 68.0796 279.522 68.3094 279.225 68.6328C278.928 68.9562 278.732 69.3593 278.66 69.7925C278.589 70.2258 278.645 70.6705 278.823 71.0722C279 71.4738 279.291 71.815 279.659 72.054C280.028 72.2929 280.458 72.4192 280.897 72.4174C281.21 72.4226 281.52 72.3613 281.808 72.2378C282.096 72.1142 282.354 71.9312 282.565 71.7006C282.777 71.4701 282.938 71.1973 283.036 70.9003C283.135 70.6032 283.17 70.2886 283.138 69.9772Z" fill="#0284C7"/>
<path d="M296.31 65.5699V74.3845H293.878V73.3387C293.534 73.7196 293.112 74.0219 292.641 74.2253C292.17 74.4286 291.66 74.5283 291.147 74.5173C288.931 74.5173 287.371 73.2723 287.371 70.5499V65.5699H289.927V70.1764C289.927 71.6455 290.583 72.3012 291.72 72.3012C292.857 72.3012 293.754 71.5459 293.754 69.9274V65.5699H296.31Z" fill="#0284C7"/>
<path d="M298.036 69.9773C298.036 67.3213 300.078 65.4372 302.95 65.4372C303.757 65.3743 304.564 65.554 305.268 65.9533C305.972 66.3526 306.541 66.9533 306.901 67.6782L304.917 68.7489C304.735 68.3838 304.454 68.0768 304.106 67.8627C303.759 67.6486 303.358 67.5358 302.95 67.5371C302.303 67.5371 301.682 67.7942 301.225 68.2519C300.767 68.7095 300.51 69.3301 300.51 69.9773C300.51 70.6245 300.767 71.2452 301.225 71.7028C301.682 72.1604 302.303 72.4175 302.95 72.4175C303.362 72.4259 303.767 72.3163 304.119 72.1016C304.47 71.8868 304.753 71.576 304.934 71.2057L306.917 72.2847C306.552 73.008 305.979 73.6063 305.273 74.0038C304.567 74.4013 303.758 74.58 302.95 74.5174C300.078 74.5174 298.036 72.6333 298.036 69.9773Z" fill="#0284C7"/>
<path d="M317.317 69.3382V74.3846H314.761V69.72C314.761 68.3007 314.105 67.645 312.976 67.645C311.848 67.645 310.86 68.392 310.86 70.0188V74.3763H308.304V62.25H310.86V66.483C311.235 66.1318 311.676 65.8585 312.158 65.6789C312.639 65.4994 313.152 65.4173 313.665 65.4372C315.749 65.4372 317.317 66.649 317.317 69.3382Z" fill="#0284C7"/>
<path d="M325.816 83.3403C325.816 83.4565 298.759 83.5561 265.393 83.5561C232.027 83.5561 204.977 83.4565 204.977 83.3403C204.977 83.2241 232.018 83.1245 265.393 83.1245C298.767 83.1245 325.816 83.2241 325.816 83.3403Z" fill="#263238"/>
<path d="M345.338 121.454C345.338 121.454 345.338 121.172 345.338 120.624C345.338 120.076 345.338 119.279 345.338 118.233C345.338 116.117 345.338 113.004 345.338 108.929L345.413 109.012L185.339 109.145L185.555 108.929V121.446L185.339 121.23L298.908 121.321L332.938 121.387H342.168H344.575H342.201H333.021L298.991 121.454L185.281 121.545H185.065V108.73H185.289L345.363 108.863H345.446V108.946C345.446 113.038 345.446 116.175 345.405 118.292C345.405 119.337 345.405 120.126 345.405 120.674C345.405 121.221 345.338 121.454 345.338 121.454Z" fill="#263238"/>
<path d="M189.016 100.115V103.75H188.327L186.518 101.542V103.75H185.688V100.115H186.377L188.186 102.322V100.115H189.016Z" fill="#263238"/>
<path d="M192.294 102.157V103.75H191.531V103.402C191.439 103.533 191.313 103.639 191.168 103.707C191.022 103.776 190.861 103.805 190.701 103.792C190.045 103.792 189.655 103.426 189.655 102.962C189.655 102.497 190.004 102.132 190.859 102.132H191.498C191.498 101.783 191.29 101.584 190.859 101.584C190.561 101.576 190.269 101.666 190.029 101.841L189.738 101.277C190.096 101.046 190.515 100.928 190.942 100.936C191.796 100.912 192.294 101.31 192.294 102.157ZM191.464 102.862V102.58H190.9C190.527 102.58 190.402 102.721 190.402 102.904C190.402 103.086 190.576 103.244 190.859 103.244C190.99 103.259 191.123 103.23 191.236 103.161C191.349 103.092 191.435 102.986 191.481 102.862H191.464Z" fill="#263238"/>
<path d="M197.739 102.148V103.75H196.909V102.273C196.909 101.824 196.702 101.617 196.378 101.617C196.054 101.617 195.764 101.849 195.764 102.347V103.75H194.934V102.273C194.934 101.824 194.743 101.617 194.403 101.617C194.062 101.617 193.788 101.849 193.788 102.347V103.75H192.958V100.953H193.73V101.26C193.842 101.139 193.978 101.044 194.13 100.981C194.282 100.918 194.446 100.889 194.61 100.895C194.789 100.884 194.967 100.921 195.128 101.001C195.288 101.081 195.424 101.202 195.523 101.351C195.647 101.204 195.802 101.086 195.977 101.007C196.153 100.928 196.343 100.89 196.536 100.895C196.703 100.873 196.874 100.891 197.033 100.947C197.193 101.003 197.337 101.095 197.454 101.217C197.571 101.339 197.658 101.487 197.708 101.649C197.757 101.811 197.768 101.982 197.739 102.148Z" fill="#263238"/>
<path d="M201.217 102.58H199.109C199.152 102.76 199.261 102.918 199.415 103.022C199.568 103.126 199.755 103.17 199.939 103.144C200.068 103.149 200.196 103.128 200.316 103.08C200.436 103.033 200.545 102.962 200.636 102.87L201.068 103.335C200.845 103.534 200.572 103.67 200.278 103.727C199.985 103.784 199.681 103.761 199.4 103.659C199.118 103.558 198.869 103.383 198.679 103.152C198.489 102.921 198.365 102.643 198.32 102.347C198.319 102.153 198.357 101.961 198.432 101.783C198.508 101.604 198.619 101.442 198.759 101.308C198.898 101.174 199.064 101.069 199.246 101.001C199.427 100.933 199.621 100.902 199.814 100.911C200.008 100.901 200.201 100.931 200.383 101C200.564 101.069 200.728 101.176 200.865 101.313C201.002 101.45 201.109 101.614 201.178 101.795C201.247 101.977 201.278 102.17 201.267 102.364C201.254 102.437 201.237 102.509 201.217 102.58ZM199.092 102.107H200.47C200.444 101.942 200.361 101.792 200.235 101.684C200.108 101.576 199.947 101.517 199.781 101.517C199.615 101.517 199.454 101.576 199.328 101.684C199.201 101.792 199.118 101.942 199.092 102.107Z" fill="#263238"/>
<path d="M345.338 152.72C345.338 152.72 345.338 152.438 345.338 151.89C345.338 151.342 345.338 150.545 345.338 149.5C345.338 147.383 345.338 144.271 345.338 140.195L345.413 140.278L185.339 140.411L185.555 140.195V152.72L185.339 152.504L298.908 152.595L332.938 152.662H342.168H344.575H342.201H333.021L298.991 152.728L185.281 152.82H185.065V139.872H185.289L345.363 140.013H345.446V140.087C345.446 144.179 345.446 147.317 345.405 149.433C345.405 150.479 345.405 151.267 345.405 151.815C345.405 152.363 345.338 152.72 345.338 152.72Z" fill="#263238"/>
<path d="M345.338 215.476C345.338 215.476 345.338 215.186 345.338 214.646C345.338 214.107 345.338 213.244 345.338 212.156C345.338 209.949 345.338 206.703 345.338 202.495C345.338 194.071 345.297 181.745 345.263 166.315L345.396 166.457L185.322 166.531L185.538 166.315C185.538 183.347 185.538 199.897 185.538 215.51L185.331 215.302L299.788 215.393L333.287 215.46H342.284H344.616H345.446H344.674H342.367H333.419L299.97 215.518L185.364 215.609H185.148V166.066H185.372L345.446 166.149H345.587V166.282C345.587 181.787 345.529 194.096 345.512 202.545C345.512 206.745 345.512 210.015 345.512 212.173C345.512 213.26 345.512 214.082 345.512 214.663C345.512 215.244 345.338 215.476 345.338 215.476Z" fill="#263238"/>
<path d="M188.501 134.311V134.991H185.688V131.356H188.41V132.028H186.493V132.858H188.153V133.514H186.493V134.344L188.501 134.311Z" fill="#263238"/>
<path d="M193.83 133.389V134.991H193V133.514C193 133.066 192.801 132.858 192.477 132.858C192.153 132.858 191.855 133.09 191.855 133.588V134.991H191.025V133.514C191.025 133.066 190.825 132.858 190.493 132.858C190.161 132.858 189.879 133.09 189.879 133.588V134.991H189.049V132.194H189.829V132.518C189.939 132.397 190.074 132.301 190.224 132.238C190.375 132.175 190.538 132.146 190.701 132.153C190.881 132.143 191.06 132.18 191.221 132.26C191.383 132.34 191.521 132.46 191.622 132.609C191.744 132.462 191.898 132.345 192.072 132.266C192.246 132.187 192.435 132.148 192.626 132.153C192.792 132.133 192.96 132.152 193.117 132.208C193.275 132.263 193.417 132.354 193.533 132.474C193.65 132.594 193.737 132.738 193.788 132.897C193.84 133.056 193.854 133.224 193.83 133.389Z" fill="#263238"/>
<path d="M197.025 133.397V134.991H196.27V134.642C196.177 134.774 196.052 134.879 195.907 134.947C195.761 135.015 195.6 135.045 195.44 135.033C194.784 135.033 194.394 134.667 194.394 134.203C194.394 133.738 194.743 133.373 195.598 133.373H196.237C196.237 133.024 196.029 132.825 195.598 132.825C195.3 132.817 195.009 132.907 194.768 133.082L194.477 132.518C194.836 132.288 195.255 132.17 195.681 132.177C196.536 132.152 197.025 132.551 197.025 133.397ZM196.195 134.103V133.821H195.648C195.266 133.821 195.141 133.962 195.141 134.144C195.141 134.327 195.316 134.485 195.606 134.485C195.735 134.497 195.864 134.465 195.974 134.396C196.083 134.327 196.167 134.224 196.212 134.103H196.195Z" fill="#263238"/>
<path d="M197.656 131.356C197.657 131.292 197.671 131.229 197.698 131.17C197.724 131.112 197.762 131.06 197.81 131.017C197.857 130.974 197.913 130.942 197.974 130.921C198.035 130.901 198.099 130.894 198.163 130.899C198.225 130.894 198.288 130.901 198.347 130.92C198.407 130.939 198.462 130.97 198.509 131.011C198.557 131.052 198.595 131.103 198.623 131.159C198.65 131.215 198.666 131.277 198.669 131.339C198.669 131.474 198.615 131.602 198.521 131.697C198.426 131.792 198.297 131.846 198.163 131.846C198.028 131.846 197.899 131.792 197.805 131.697C197.71 131.602 197.656 131.474 197.656 131.339V131.356ZM197.756 132.186H198.586V134.983H197.756V132.186Z" fill="#263238"/>
<path d="M199.316 131.14H200.146V134.991H199.316V131.14Z" fill="#263238"/>
<path d="M204.819 133.397V134.991H204.064V134.642C203.971 134.774 203.846 134.879 203.7 134.947C203.555 135.015 203.394 135.045 203.234 135.033C202.578 135.033 202.196 134.667 202.196 134.203C202.196 133.738 202.537 133.373 203.392 133.373H204.039C204.039 133.024 203.831 132.825 203.392 132.825C203.094 132.818 202.803 132.908 202.562 133.082L202.271 132.518C202.63 132.288 203.049 132.17 203.475 132.177C204.329 132.152 204.819 132.551 204.819 133.397ZM203.989 134.103V133.821H203.433C203.051 133.821 202.935 133.962 202.935 134.144C202.935 134.327 203.101 134.485 203.392 134.485C203.523 134.497 203.654 134.467 203.767 134.398C203.879 134.329 203.966 134.226 204.014 134.103H203.989Z" fill="#263238"/>
<path d="M208.43 131.14V134.991H207.658V134.667C207.548 134.791 207.412 134.887 207.26 134.951C207.107 135.014 206.943 135.042 206.778 135.033C206.415 135.005 206.076 134.841 205.828 134.574C205.581 134.307 205.443 133.957 205.443 133.593C205.443 133.228 205.581 132.878 205.828 132.611C206.076 132.344 206.415 132.18 206.778 132.152C206.933 132.145 207.087 132.171 207.231 132.23C207.374 132.289 207.503 132.379 207.608 132.493V131.14H208.43ZM207.6 133.588C207.587 133.451 207.534 133.32 207.448 133.212C207.363 133.103 207.247 133.022 207.116 132.978C206.985 132.934 206.844 132.929 206.71 132.964C206.576 132.998 206.456 133.071 206.362 133.173C206.269 133.275 206.207 133.402 206.185 133.538C206.162 133.675 206.18 133.815 206.235 133.941C206.29 134.068 206.381 134.176 206.497 134.251C206.613 134.327 206.748 134.368 206.886 134.369C206.985 134.375 207.084 134.36 207.177 134.325C207.269 134.29 207.354 134.236 207.424 134.166C207.495 134.096 207.55 134.013 207.586 133.92C207.622 133.828 207.638 133.729 207.633 133.63L207.6 133.588Z" fill="#263238"/>
<path d="M212.024 131.14V134.991H211.243V134.667C211.14 134.785 211.012 134.878 210.869 134.941C210.725 135.004 210.57 135.036 210.413 135.033C210.05 135.005 209.711 134.841 209.464 134.574C209.216 134.307 209.079 133.957 209.079 133.593C209.079 133.228 209.216 132.878 209.464 132.611C209.711 132.344 210.05 132.18 210.413 132.152C210.568 132.145 210.723 132.171 210.866 132.23C211.01 132.289 211.139 132.379 211.243 132.493V131.14H212.024ZM211.194 133.588C211.181 133.451 211.128 133.32 211.042 133.212C210.956 133.103 210.841 133.022 210.71 132.978C210.579 132.934 210.438 132.929 210.304 132.964C210.17 132.998 210.049 133.071 209.956 133.173C209.863 133.275 209.801 133.402 209.779 133.538C209.756 133.675 209.774 133.815 209.829 133.941C209.884 134.068 209.975 134.176 210.091 134.251C210.206 134.327 210.342 134.368 210.48 134.369C210.579 134.375 210.678 134.36 210.771 134.325C210.863 134.29 210.948 134.236 211.018 134.166C211.089 134.096 211.144 134.013 211.18 133.92C211.215 133.828 211.232 133.729 211.227 133.63L211.194 133.588Z" fill="#263238"/>
<path d="M214.497 132.152V132.899H214.314C214.212 132.891 214.108 132.906 214.012 132.943C213.916 132.98 213.829 133.038 213.758 133.112C213.687 133.187 213.634 133.277 213.602 133.375C213.571 133.474 213.562 133.578 213.576 133.68V134.999H212.746V132.202H213.526V132.576C213.639 132.429 213.787 132.313 213.957 132.239C214.127 132.165 214.312 132.135 214.497 132.152Z" fill="#263238"/>
<path d="M217.676 133.821H215.568C215.611 134.001 215.72 134.159 215.874 134.263C216.027 134.368 216.214 134.411 216.398 134.385C216.526 134.389 216.655 134.367 216.774 134.32C216.894 134.273 217.003 134.202 217.095 134.111L217.526 134.576C217.303 134.775 217.031 134.911 216.737 134.968C216.444 135.025 216.14 135.002 215.859 134.901C215.577 134.799 215.328 134.624 215.138 134.393C214.948 134.162 214.824 133.884 214.779 133.588C214.778 133.395 214.816 133.202 214.891 133.024C214.967 132.845 215.078 132.684 215.217 132.549C215.357 132.415 215.523 132.31 215.704 132.242C215.886 132.174 216.079 132.144 216.273 132.153C216.466 132.143 216.66 132.174 216.84 132.244C217.021 132.313 217.185 132.42 217.321 132.557C217.458 132.694 217.565 132.858 217.634 133.038C217.704 133.219 217.735 133.412 217.726 133.605C217.713 133.678 217.696 133.75 217.676 133.821ZM215.551 133.348H216.929C216.903 133.183 216.82 133.034 216.693 132.925C216.567 132.817 216.406 132.758 216.24 132.758C216.074 132.758 215.913 132.817 215.786 132.925C215.66 133.034 215.577 133.183 215.551 133.348Z" fill="#263238"/>
<path d="M217.958 134.726L218.232 134.145C218.524 134.323 218.86 134.418 219.203 134.418C219.577 134.418 219.718 134.319 219.718 134.161C219.718 133.705 218.058 134.161 218.058 133.057C218.058 132.526 218.531 132.153 219.344 132.153C219.719 132.145 220.089 132.231 220.423 132.402L220.149 132.974C219.897 132.83 219.61 132.758 219.319 132.767C218.962 132.767 218.805 132.883 218.805 133.024C218.805 133.505 220.465 133.024 220.465 134.145C220.465 134.659 219.983 135.033 219.145 135.033C218.729 135.035 218.32 134.929 217.958 134.726Z" fill="#263238"/>
<path d="M220.714 134.726L220.988 134.145C221.28 134.323 221.616 134.418 221.959 134.418C222.332 134.418 222.473 134.319 222.473 134.161C222.473 133.705 220.813 134.161 220.813 133.057C220.813 132.526 221.286 132.153 222.1 132.153C222.474 132.145 222.845 132.231 223.179 132.402L222.905 132.974C222.653 132.83 222.365 132.758 222.075 132.767C221.718 132.767 221.56 132.883 221.56 133.024C221.56 133.505 223.22 133.024 223.22 134.145C223.22 134.659 222.739 135.033 221.901 135.033C221.485 135.035 221.076 134.929 220.714 134.726Z" fill="#263238"/>
<path d="M188.991 162.157V159.974L187.929 161.775H187.58L186.518 160.024V162.157H185.729V158.53H186.418L187.779 160.788L189.124 158.53H189.813V162.165L188.991 162.157Z" fill="#263238"/>
<path d="M193.307 161.02H191.191C191.234 161.2 191.343 161.358 191.497 161.462C191.65 161.567 191.837 161.61 192.021 161.584C192.151 161.589 192.28 161.567 192.402 161.52C192.523 161.473 192.633 161.402 192.726 161.311L193.158 161.784C193.009 161.937 192.829 162.057 192.63 162.134C192.431 162.212 192.217 162.245 192.004 162.232C191.803 162.251 191.6 162.229 191.409 162.166C191.217 162.103 191.04 162 190.891 161.865C190.741 161.73 190.62 161.565 190.538 161.381C190.455 161.197 190.412 160.998 190.41 160.796C190.408 160.602 190.445 160.41 190.519 160.231C190.594 160.052 190.704 159.89 190.843 159.754C190.982 159.619 191.147 159.514 191.328 159.445C191.509 159.375 191.702 159.344 191.896 159.352C192.09 159.342 192.283 159.373 192.464 159.443C192.645 159.513 192.809 159.619 192.947 159.756C193.084 159.892 193.192 160.056 193.262 160.237C193.333 160.417 193.365 160.611 193.357 160.804C193.324 160.837 193.307 160.92 193.307 161.02ZM191.182 160.547H192.56C192.534 160.383 192.451 160.233 192.325 160.125C192.198 160.016 192.037 159.957 191.871 159.957C191.705 159.957 191.544 160.016 191.418 160.125C191.291 160.233 191.208 160.383 191.182 160.547Z" fill="#263238"/>
<path d="M193.589 161.9L193.855 161.319C194.15 161.49 194.485 161.581 194.826 161.584C195.208 161.584 195.341 161.485 195.341 161.335C195.341 160.879 193.681 161.335 193.681 160.223C193.681 159.7 194.162 159.318 194.975 159.318C195.347 159.312 195.715 159.398 196.046 159.567L195.78 160.14C195.527 160 195.24 159.928 194.95 159.933C194.585 159.933 194.428 160.049 194.428 160.198C194.428 160.671 196.088 160.198 196.088 161.31C196.088 161.833 195.598 162.199 194.768 162.199C194.356 162.198 193.951 162.095 193.589 161.9Z" fill="#263238"/>
<path d="M196.345 161.9L196.61 161.319C196.906 161.49 197.24 161.581 197.582 161.584C197.963 161.584 198.096 161.485 198.096 161.335C198.096 160.879 196.436 161.335 196.436 160.223C196.436 159.7 196.918 159.318 197.731 159.318C198.103 159.312 198.471 159.398 198.802 159.567L198.536 160.14C198.282 160 197.996 159.928 197.706 159.933C197.341 159.933 197.183 160.049 197.183 160.198C197.183 160.671 198.843 160.198 198.843 161.31C198.843 161.833 198.353 162.199 197.523 162.199C197.112 162.198 196.707 162.095 196.345 161.9Z" fill="#263238"/>
<path d="M201.839 160.564V162.157H201.084V161.85C200.992 161.983 200.867 162.088 200.722 162.157C200.576 162.225 200.415 162.254 200.254 162.24C199.607 162.24 199.217 161.875 199.217 161.41C199.217 160.945 199.565 160.58 200.412 160.58H201.059C201.059 160.232 200.852 160.032 200.412 160.032C200.115 160.026 199.823 160.116 199.582 160.29L199.291 159.725C199.65 159.496 200.069 159.377 200.495 159.385C201.35 159.36 201.839 159.717 201.839 160.564ZM201.009 161.277V161.02H200.453C200.072 161.02 199.955 161.161 199.955 161.352C199.955 161.543 200.121 161.684 200.412 161.684C200.546 161.695 200.68 161.661 200.793 161.587C200.906 161.514 200.99 161.405 201.034 161.277H201.009Z" fill="#263238"/>
<path d="M205.483 159.36V161.684C205.483 162.722 204.927 163.195 203.914 163.195C203.429 163.215 202.95 163.082 202.545 162.813L202.869 162.232C203.156 162.44 203.502 162.55 203.856 162.547C204.429 162.547 204.686 162.29 204.686 161.784V161.667C204.571 161.785 204.432 161.876 204.279 161.936C204.126 161.996 203.962 162.024 203.798 162.016C203.439 162.016 203.095 161.873 202.842 161.62C202.588 161.366 202.445 161.022 202.445 160.663C202.445 160.304 202.588 159.96 202.842 159.706C203.095 159.453 203.439 159.31 203.798 159.31C203.974 159.301 204.15 159.333 204.311 159.403C204.473 159.474 204.615 159.581 204.728 159.717V159.36H205.483ZM204.653 160.663C204.663 160.515 204.628 160.367 204.553 160.239C204.478 160.111 204.366 160.009 204.231 159.945C204.097 159.882 203.947 159.86 203.8 159.884C203.654 159.907 203.517 159.974 203.409 160.076C203.301 160.178 203.226 160.31 203.195 160.455C203.163 160.6 203.175 160.751 203.231 160.889C203.286 161.027 203.382 161.145 203.505 161.227C203.629 161.31 203.774 161.353 203.923 161.352C204.019 161.364 204.116 161.355 204.209 161.326C204.301 161.297 204.386 161.249 204.459 161.185C204.531 161.12 204.589 161.041 204.628 160.953C204.667 160.864 204.687 160.768 204.686 160.671L204.653 160.663Z" fill="#263238"/>
<path d="M208.961 161.02H206.844C206.888 161.2 206.997 161.358 207.15 161.462C207.304 161.567 207.491 161.61 207.674 161.584C207.804 161.589 207.934 161.568 208.055 161.52C208.177 161.473 208.287 161.402 208.38 161.311L208.811 161.784C208.663 161.937 208.483 162.056 208.283 162.134C208.084 162.211 207.871 162.244 207.658 162.232C207.457 162.253 207.253 162.231 207.061 162.169C206.869 162.106 206.692 162.004 206.542 161.868C206.391 161.733 206.271 161.568 206.189 161.383C206.107 161.198 206.064 160.998 206.064 160.796C206.063 160.607 206.099 160.42 206.171 160.245C206.243 160.07 206.349 159.912 206.482 159.778C206.616 159.645 206.775 159.539 206.949 159.467C207.124 159.395 207.311 159.359 207.5 159.36C207.694 159.351 207.887 159.382 208.068 159.451C208.249 159.521 208.413 159.627 208.551 159.764C208.688 159.901 208.796 160.065 208.866 160.245C208.937 160.426 208.969 160.619 208.961 160.813C208.977 160.837 208.961 160.92 208.961 161.02ZM206.836 160.547H208.214C208.188 160.383 208.105 160.233 207.978 160.125C207.852 160.016 207.691 159.957 207.525 159.957C207.359 159.957 207.198 160.016 207.071 160.125C206.945 160.233 206.862 160.383 206.836 160.547Z" fill="#263238"/>
<path d="M336.266 245.68H294.584C293.255 245.681 291.94 245.42 290.712 244.913C289.485 244.405 288.369 243.661 287.43 242.722C286.49 241.783 285.745 240.668 285.236 239.441C284.728 238.214 284.466 236.899 284.466 235.571C284.466 234.242 284.728 232.927 285.236 231.7C285.745 230.473 286.49 229.358 287.43 228.419C288.369 227.48 289.485 226.736 290.712 226.228C291.94 225.721 293.255 225.46 294.584 225.461H336.266C338.947 225.461 341.519 226.526 343.415 228.422C345.311 230.318 346.376 232.889 346.376 235.571C346.376 238.252 345.311 240.823 343.415 242.719C341.519 244.615 338.947 245.68 336.266 245.68Z" fill="#0284C7"/>
<path d="M306.27 237.139L306.66 236.309C307.137 236.637 307.701 236.813 308.279 236.816C308.951 236.816 309.225 236.592 309.225 236.293C309.225 235.371 306.37 236.002 306.37 234.176C306.37 233.346 307.042 232.641 308.445 232.641C309.041 232.629 309.63 232.781 310.146 233.081L309.798 233.911C309.384 233.667 308.916 233.532 308.436 233.521C307.756 233.521 307.498 233.778 307.498 234.085C307.498 234.99 310.362 234.367 310.362 236.177C310.362 237.007 309.681 237.695 308.27 237.695C307.562 237.719 306.864 237.525 306.27 237.139Z" fill="white"/>
<path d="M314.753 236.044H311.897C311.955 236.279 312.096 236.486 312.294 236.625C312.493 236.764 312.735 236.826 312.976 236.799C313.151 236.807 313.325 236.778 313.488 236.716C313.651 236.653 313.799 236.557 313.923 236.434L314.512 237.065C314.214 237.347 313.844 237.542 313.442 237.627C313.041 237.712 312.623 237.683 312.237 237.545C311.85 237.406 311.51 237.163 311.254 236.842C310.997 236.521 310.835 236.136 310.785 235.728C310.783 235.465 310.834 235.205 310.936 234.962C311.038 234.72 311.188 234.501 311.378 234.319C311.568 234.137 311.793 233.996 312.039 233.904C312.285 233.813 312.548 233.772 312.81 233.786C313.071 233.773 313.332 233.815 313.576 233.908C313.82 234.002 314.042 234.146 314.227 234.33C314.412 234.515 314.557 234.736 314.652 234.979C314.747 235.223 314.789 235.484 314.778 235.745C314.778 235.828 314.761 235.952 314.753 236.044ZM311.881 235.405H313.74C313.699 235.188 313.584 234.993 313.414 234.852C313.244 234.712 313.031 234.635 312.81 234.635C312.59 234.635 312.377 234.712 312.207 234.852C312.037 234.993 311.922 235.188 311.881 235.405Z" fill="white"/>
<path d="M319.376 235.455V237.621H318.272V235.629C318.272 235.015 317.998 234.732 317.508 234.732C317.019 234.732 316.604 235.056 316.604 235.753V237.621H315.508V233.844H316.554V234.284C316.716 234.118 316.912 233.988 317.128 233.902C317.343 233.816 317.575 233.777 317.807 233.786C318.025 233.772 318.244 233.807 318.447 233.887C318.651 233.967 318.834 234.092 318.984 234.251C319.134 234.411 319.247 234.601 319.314 234.809C319.382 235.017 319.403 235.237 319.376 235.455Z" fill="white"/>
<path d="M324.256 232.4V237.612H323.21V237.181C323.065 237.347 322.882 237.478 322.678 237.563C322.474 237.648 322.253 237.685 322.032 237.67C321.537 237.638 321.074 237.419 320.735 237.058C320.397 236.696 320.208 236.219 320.208 235.724C320.208 235.229 320.397 234.752 320.735 234.391C321.074 234.029 321.537 233.81 322.032 233.778C322.242 233.768 322.451 233.803 322.646 233.882C322.841 233.961 323.017 234.081 323.161 234.234V232.4H324.256ZM323.185 235.72C323.169 235.532 323.099 235.353 322.982 235.204C322.866 235.055 322.709 234.944 322.53 234.883C322.351 234.823 322.159 234.815 321.976 234.862C321.793 234.909 321.628 235.009 321.501 235.148C321.374 235.287 321.29 235.461 321.259 235.647C321.229 235.833 321.254 236.024 321.33 236.197C321.407 236.369 321.532 236.516 321.691 236.618C321.849 236.721 322.034 236.775 322.223 236.774C322.357 236.775 322.49 236.747 322.613 236.693C322.737 236.639 322.847 236.56 322.938 236.461C323.029 236.361 323.097 236.244 323.14 236.116C323.183 235.989 323.198 235.854 323.185 235.72Z" fill="white"/>
<path d="M184.119 57.7597C183.485 57.6978 182.847 57.6701 182.21 57.6767C180.475 57.7622 178.818 58.4254 177.504 59.5608C176.541 60.3938 175.801 61.4541 175.351 62.6456C174.902 63.8371 174.757 65.1219 174.931 66.3834C175.028 67.1096 175.232 67.8173 175.537 68.4833C175.851 69.1782 176.268 69.8217 176.773 70.3923C177.841 71.6021 179.267 72.4397 180.843 72.783C182.419 73.1264 184.064 72.9576 185.538 72.3013C186.237 71.9979 186.884 71.5861 187.456 71.0812C188.014 70.6049 188.496 70.0449 188.883 69.4212C189.566 68.3471 189.97 67.1191 190.057 65.8492C190.144 64.5792 189.911 63.3077 189.381 62.1504C188.665 60.5764 187.448 59.2836 185.92 58.4735C185.344 58.2038 184.754 57.9655 184.152 57.7597C184.793 57.844 185.416 58.0347 185.995 58.3241C187.616 59.0904 188.922 60.3959 189.688 62.0176C190.225 63.1352 190.489 64.3639 190.46 65.6032C190.423 67.033 190.002 68.4265 189.24 69.637C188.402 70.9785 187.182 72.0392 185.737 72.6831C184.183 73.3866 182.443 73.5703 180.776 73.207C179.109 72.8437 177.604 71.9527 176.483 70.6662C175.925 70.0722 175.468 69.3909 175.13 68.6493C174.808 67.9506 174.598 67.2056 174.508 66.4415C174.329 65.1189 174.489 63.7727 174.973 62.5288C175.456 61.2848 176.247 60.1837 177.271 59.3284C178.646 58.1761 180.375 57.5314 182.168 57.5024C182.828 57.482 183.487 57.5689 184.119 57.7597Z" fill="#0284C7"/>
<path d="M179.745 58.1C181.12 60.2661 182.373 62.5079 183.496 64.8147C184.736 67.0531 185.845 69.3616 186.816 71.7286C185.452 69.5576 184.202 67.3163 183.073 65.0139C181.833 62.7745 180.722 60.4661 179.745 58.1Z" fill="#0284C7"/>
<path d="M181.33 57.66C182.669 59.753 183.882 61.9231 184.966 64.1589C186.178 66.3285 187.267 68.5648 188.227 70.857C186.888 68.7632 185.671 66.5932 184.584 64.3581C183.372 62.1896 182.285 59.9532 181.33 57.66Z" fill="#0284C7"/>
<path d="M183.164 57.6849C184.358 59.5107 185.431 61.4127 186.377 63.3787C187.455 65.2764 188.404 67.2453 189.215 69.2717C188.021 67.4446 186.945 65.5428 185.995 63.5779C184.924 61.6773 183.979 59.7087 183.164 57.6849Z" fill="#0284C7"/>
<path d="M185.14 57.9755C186.133 59.4298 187.013 60.9588 187.771 62.5488C188.649 64.0748 189.398 65.6711 190.012 67.3213C189.018 65.867 188.139 64.338 187.381 62.748C186.503 61.2219 185.753 59.6256 185.14 57.9755Z" fill="#0284C7"/>
<path d="M178.317 59.0212C179.694 61.1865 180.947 63.4283 182.069 65.7359C183.323 67.9744 184.448 70.2828 185.439 72.6498C184.061 70.485 182.808 68.2431 181.687 65.9351C180.437 63.6946 179.312 61.3864 178.317 59.0212Z" fill="#0284C7"/>
<path d="M176.898 59.9426C178.275 62.1052 179.527 64.3443 180.65 66.649C181.883 68.8904 182.992 71.1986 183.97 73.5629C182.592 71.3981 181.339 69.1562 180.218 66.8482C178.985 64.6091 177.877 62.3037 176.898 59.9426Z" fill="#0284C7"/>
<path d="M175.753 61.42C176.968 63.282 178.058 65.2229 179.014 67.23C180.104 69.1598 181.066 71.1588 181.894 73.2143C180.681 71.3515 179.591 69.4106 178.633 67.4043C177.545 65.4733 176.583 63.4744 175.753 61.42Z" fill="#0284C7"/>
<path d="M174.906 63.412C175.903 64.8492 176.778 66.3679 177.52 67.9521C178.391 69.4692 179.138 71.0541 179.753 72.6914C178.758 71.2528 177.883 69.7342 177.139 68.1513C176.262 66.6375 175.515 65.052 174.906 63.412Z" fill="#0284C7"/>
<path d="M245.224 235.529C245.174 235.529 244.892 234.923 244.07 234.002C242.904 232.717 241.34 231.86 239.629 231.57C238.374 231.348 237.084 231.446 235.876 231.855C234.669 232.264 233.585 232.971 232.724 233.911C231.704 235.014 231.034 236.394 230.798 237.878C230.538 239.469 230.795 241.102 231.529 242.537C232.264 243.972 233.439 245.135 234.882 245.854C235.561 246.207 236.292 246.448 237.048 246.568C237.766 246.692 238.499 246.709 239.223 246.618C240.279 246.484 241.296 246.132 242.21 245.585C243.124 245.038 243.914 244.307 244.531 243.439C245.148 242.571 245.578 241.584 245.795 240.541C246.011 239.498 246.009 238.422 245.788 237.38C245.522 236.185 245.174 235.579 245.224 235.554C245.562 236.108 245.809 236.714 245.954 237.347C246.39 239.086 246.208 240.923 245.439 242.543C244.916 243.667 244.134 244.651 243.157 245.414C242.035 246.307 240.693 246.881 239.272 247.074C238.51 247.19 237.735 247.19 236.973 247.074C236.179 246.948 235.409 246.699 234.691 246.336C233.164 245.578 231.92 244.349 231.145 242.83C230.369 241.312 230.102 239.585 230.383 237.903C230.505 237.107 230.754 236.336 231.122 235.62C231.461 234.929 231.903 234.294 232.433 233.736C233.343 232.762 234.484 232.034 235.751 231.619C237.018 231.204 238.369 231.116 239.679 231.362C241.446 231.69 243.044 232.62 244.203 233.994C244.621 234.449 244.966 234.967 245.224 235.529Z" fill="#0284C7"/>
<path d="M242.177 232.4C241.372 234.837 240.432 237.229 239.364 239.563C238.427 241.947 237.357 244.278 236.16 246.543C236.963 244.108 237.899 241.72 238.965 239.389C239.906 237.001 240.978 234.668 242.177 232.4Z" fill="#0284C7"/>
<path d="M243.53 233.313C242.761 235.677 241.855 237.993 240.816 240.252C239.91 242.565 238.871 244.823 237.704 247.016C238.471 244.655 239.378 242.341 240.418 240.086C241.327 237.771 242.366 235.51 243.53 233.313Z" fill="#0284C7"/>
<path d="M244.676 234.749C244.021 236.832 243.231 238.869 242.31 240.849C241.528 242.885 240.607 244.865 239.555 246.775C240.206 244.692 240.997 242.654 241.92 240.675C242.703 238.639 243.623 236.659 244.676 234.749Z" fill="#0284C7"/>
<path d="M245.68 236.459C245.196 238.153 244.574 239.804 243.821 241.397C243.194 243.041 242.437 244.631 241.555 246.153C242.043 244.462 242.667 242.813 243.422 241.223C244.047 239.578 244.802 237.984 245.68 236.459Z" fill="#0284C7"/>
<path d="M240.567 231.861C239.759 234.294 238.82 236.683 237.754 239.015C236.813 241.401 235.744 243.734 234.55 246.004C235.35 243.566 236.287 241.174 237.355 238.841C238.288 236.453 239.361 234.123 240.567 231.861Z" fill="#0284C7"/>
<path d="M238.949 231.338C238.152 233.774 237.215 236.163 236.143 238.492C235.207 240.88 234.138 243.213 232.94 245.481C233.739 243.045 234.676 240.656 235.745 238.326C236.681 235.938 237.751 233.605 238.949 231.338Z" fill="#0284C7"/>
<path d="M237.106 231.371C236.442 233.485 235.641 235.553 234.707 237.563C233.906 239.627 232.971 241.637 231.91 243.58C232.576 241.464 233.377 239.393 234.309 237.38C235.11 235.319 236.045 233.311 237.106 231.371Z" fill="#0284C7"/>
<path d="M235.006 232.001C234.521 233.681 233.902 235.318 233.155 236.898C232.544 238.537 231.791 240.12 230.906 241.629C231.391 239.95 232.01 238.313 232.757 236.732C233.373 235.095 234.125 233.513 235.006 232.001Z" fill="#0284C7"/>
<path d="M360.286 77.5053C360.202 76.3398 360.027 75.1827 359.764 74.0442C359.423 72.7183 358.886 71.4509 358.17 70.2843C356.482 67.4759 353.868 65.3427 350.779 64.2508C347.689 63.1588 344.316 63.1762 341.238 64.3C339.962 64.7515 338.763 65.3983 337.686 66.2173C337.124 66.6314 336.592 67.0834 336.092 67.5702C335.594 68.0907 335.134 68.6454 334.714 69.2302C332.94 71.6339 331.983 74.5428 331.983 77.5302C331.983 80.5177 332.94 83.4265 334.714 85.8302C335.134 86.4151 335.594 86.9697 336.092 87.4902C336.592 87.9771 337.124 88.4291 337.686 88.8431C338.763 89.6622 339.962 90.309 341.238 90.7604C344.316 91.8842 347.689 91.9016 350.779 90.8097C353.868 89.7178 356.482 87.5845 358.17 84.7761C358.886 83.6095 359.423 82.3421 359.764 81.0162C360.027 79.8778 360.202 78.7206 360.286 77.5551C360.296 77.6323 360.296 77.7104 360.286 77.7875C360.286 77.9618 360.286 78.1859 360.286 78.4681C360.288 78.838 360.257 79.2074 360.195 79.572C360.142 80.0735 360.05 80.5702 359.921 81.0577C359.606 82.4101 359.085 83.7061 358.377 84.9006C357.34 86.6625 355.941 88.1836 354.27 89.3628C352.6 90.5419 350.699 91.3522 348.691 91.7398C346.154 92.2189 343.534 92.0097 341.105 91.1339C339.789 90.6724 338.552 90.0118 337.437 89.1751C336.853 88.7479 336.298 88.282 335.777 87.7807C335.265 87.2616 334.791 86.7069 334.357 86.1207C332.525 83.6455 331.536 80.6472 331.536 77.5676C331.536 74.4879 332.525 71.4897 334.357 69.0144C334.795 68.4317 335.269 67.8773 335.777 67.3544C336.298 66.8531 336.853 66.3873 337.437 65.96C338.554 65.089 339.8 64.3973 341.13 63.9099C343.399 63.0848 345.84 62.847 348.226 63.2185C350.611 63.59 352.864 64.5588 354.775 66.0347C356.243 67.1682 357.476 68.5781 358.402 70.1847C359.11 71.3793 359.631 72.6753 359.946 74.0276C360.076 74.5206 360.168 75.0228 360.22 75.5299C360.282 75.8946 360.313 76.2639 360.311 76.6338C360.311 76.916 360.311 77.1401 360.311 77.3144C360.309 77.3787 360.301 77.4427 360.286 77.5053Z" fill="#0284C7"/>
<path d="M357.954 69.8362C358.029 69.9275 353.265 74.036 347.305 78.9662C341.346 83.8964 336.457 87.98 336.382 87.8472C336.308 87.7144 341.072 83.6972 347.031 78.7172C352.991 73.7372 357.879 69.72 357.954 69.8362Z" fill="#0284C7"/>
<path d="M359.39 72.4922C359.465 72.5835 354.842 76.5592 349.073 81.3815C343.305 86.2038 338.557 90.0384 338.482 89.9471C338.408 89.8558 343.022 85.8718 348.799 81.0495C354.576 76.2272 359.299 72.4009 359.39 72.4922Z" fill="#0284C7"/>
<path d="M360.046 75.7706C360.129 75.8619 356.078 79.3645 351.015 83.5975C345.952 87.8305 341.777 91.1837 341.703 91.0675C341.628 90.9513 345.67 87.4736 350.733 83.2406C355.796 79.0076 359.971 75.6793 360.046 75.7706Z" fill="#0284C7"/>
<path d="M360.286 79.4144C360.361 79.5057 357.116 82.3443 353.032 85.7556C348.949 89.1669 345.562 91.8561 345.496 91.7648C345.429 91.6735 348.666 88.8349 352.758 85.4236C356.85 82.0123 360.22 79.3231 360.286 79.4144Z" fill="#0284C7"/>
<path d="M355.763 67.645C355.846 67.7363 351.073 71.8448 345.122 76.775C339.171 81.7052 334.266 85.7141 334.191 85.6228C334.117 85.5315 338.881 81.423 344.84 76.443C350.8 71.463 355.688 67.5537 355.763 67.645Z" fill="#0284C7"/>
<path d="M353.58 65.4538C353.655 65.5451 348.882 69.6536 342.931 74.5838C336.98 79.514 332.083 83.5644 332 83.4731C331.917 83.3818 336.69 79.2733 342.649 74.2933C348.608 69.3133 353.497 65.3625 353.58 65.4538Z" fill="#0284C7"/>
<path d="M350.534 63.9764C350.609 64.0677 346.508 67.6201 341.362 71.9195C336.216 76.2189 332 79.6219 331.917 79.5306C331.834 79.4393 335.943 75.8786 341.089 71.5875C346.235 67.2964 350.459 63.91 350.534 63.9764Z" fill="#0284C7"/>
<path d="M346.6 63.246C346.674 63.3373 343.446 66.1593 339.395 69.5457C335.345 72.9321 331.983 75.6048 331.925 75.5135C331.867 75.4222 335.071 72.6001 339.13 69.2137C343.188 65.8273 346.525 63.1547 346.6 63.246Z" fill="#0284C7"/>
<path d="M330.805 58.9134C332.272 58.9134 333.461 57.7243 333.461 56.2574C333.461 54.7906 332.272 53.6014 330.805 53.6014C329.338 53.6014 328.149 54.7906 328.149 56.2574C328.149 57.7243 329.338 58.9134 330.805 58.9134Z" fill="#0284C7"/>
<path d="M256.885 230.931C256.887 231.457 256.732 231.971 256.441 232.409C256.151 232.847 255.736 233.188 255.251 233.391C254.766 233.593 254.232 233.647 253.716 233.545C253.2 233.444 252.726 233.191 252.354 232.82C251.982 232.449 251.728 231.976 251.625 231.46C251.522 230.945 251.574 230.411 251.774 229.925C251.975 229.439 252.316 229.024 252.753 228.731C253.19 228.439 253.703 228.283 254.229 228.283C254.932 228.283 255.606 228.562 256.104 229.058C256.602 229.554 256.883 230.228 256.885 230.931Z" fill="#0284C7"/>
<path d="M131.273 90.47C130.94 88.374 129.927 86.4457 128.389 84.983C126.852 83.5204 124.875 82.6047 122.765 82.3775C121.647 82.4022 120.531 82.2795 119.445 82.0123C118.626 81.6182 117.835 81.1661 117.08 80.6594C115.773 80.0018 114.282 79.8079 112.851 80.1096C111.419 80.4112 110.133 81.1904 109.203 82.3194C107.543 84.4857 106.821 81.4894 102.829 83.8466C99.5087 85.8137 101.252 88.5444 101.252 88.5444C99.5387 88.5218 97.8709 89.0932 96.5317 90.1615C95.1925 91.2298 94.2648 92.729 93.9062 94.4042C93.5161 96.5373 93.9062 99.1269 92.2462 100.521C91.4162 101.194 90.3206 101.351 89.4823 102.024C87.9385 103.219 87.8887 105.526 88.2373 107.443C88.5859 109.361 89.1835 111.394 88.4697 113.253C87.2994 116.233 83.0581 117.403 82.5352 120.574C82.2862 122.068 82.9087 123.894 81.8712 124.956C81.4103 125.352 80.8816 125.662 80.3108 125.869C79.1978 126.414 78.2563 127.255 77.5896 128.299C76.9228 129.344 76.5564 130.551 76.5307 131.79C76.505 133.029 76.8209 134.251 77.4438 135.322C78.0666 136.394 78.9724 137.273 80.0618 137.863C80.6594 138.187 81.3815 138.494 81.6056 139.141C81.8297 139.789 81.3898 140.61 81.0495 141.291C80.4176 142.555 80.2155 143.991 80.474 145.38C80.7325 146.77 81.4375 148.037 82.4818 148.989C83.5261 149.941 84.8526 150.527 86.26 150.656C87.6673 150.786 89.0785 150.453 90.2791 149.707C91.5969 151.985 93.7489 153.66 96.28 154.38C97.4267 154.758 98.6594 154.79 99.8241 154.471C100.733 154.15 101.565 153.641 102.264 152.977C105.717 149.964 110.564 145.366 110.88 140.793" fill="#263238"/>
<path d="M99.517 107.136C98.9883 107.243 98.4438 107.243 97.9151 107.136C96.6268 106.923 95.3969 106.444 94.3038 105.729C93.2107 105.015 92.2782 104.081 91.5656 102.986C91.2446 102.556 91.0157 102.065 90.8933 101.542C91.2263 101.946 91.534 102.37 91.8146 102.812C92.579 103.789 93.5021 104.631 94.5453 105.302C95.599 105.974 96.7576 106.465 97.9732 106.755C98.4956 106.848 99.0113 106.976 99.517 107.136Z" fill="#455A64"/>
<path d="M101.833 96.637C101.564 97.0525 101.211 97.4062 100.795 97.6745C98.8624 99.1052 96.446 99.722 94.0639 99.3926C93.5694 99.3562 93.0884 99.2147 92.6529 98.9776C94.266 99.1748 95.9004 99.1075 97.4918 98.7784C99.0477 98.3108 100.515 97.5871 101.833 96.637Z" fill="#455A64"/>
<path d="M84.8675 148.57C84.8675 148.57 84.8177 148.57 84.7264 148.57C84.5858 148.536 84.4473 148.495 84.3114 148.446C83.7934 148.249 83.3111 147.968 82.8838 147.616C82.1766 147.086 81.6072 146.394 81.2238 145.599C80.7248 144.538 80.5849 143.343 80.8254 142.196C80.9562 141.531 81.2065 140.895 81.5641 140.32C81.9641 139.696 82.4566 139.136 83.0249 138.66C83.6069 138.183 84.1159 137.624 84.5355 137C84.7259 136.676 84.8318 136.309 84.8434 135.933C84.855 135.558 84.772 135.185 84.6019 134.85C84.1863 134.123 83.6877 133.446 83.1162 132.833C82.8251 132.487 82.5667 132.115 82.3443 131.721C82.1213 131.304 81.9698 130.852 81.8961 130.385C81.7624 129.406 81.9387 128.409 82.4002 127.535C82.8616 126.662 83.5851 125.954 84.4691 125.513C85.3818 125.207 86.321 124.988 87.2745 124.857C87.7032 124.771 88.1099 124.599 88.4697 124.351C88.8018 124.103 89.0437 123.753 89.1586 123.355C89.3392 122.517 89.2431 121.643 88.8847 120.865C88.561 120.076 88.1128 119.329 87.8223 118.532C87.4804 117.747 87.4188 116.868 87.648 116.042C87.9194 115.281 88.414 114.618 89.0673 114.142C90.2309 113.365 91.5325 112.818 92.9019 112.531C93.9893 112.274 95.0156 111.806 95.9231 111.154C96.5638 110.612 97.0074 109.874 97.1847 109.054C97.3098 108.537 97.2572 107.993 97.0353 107.51C96.8776 107.178 96.7282 107.045 96.7531 107.029C96.9065 107.146 97.0313 107.296 97.1183 107.468C97.3796 107.962 97.4618 108.531 97.3507 109.079C97.1994 109.955 96.751 110.752 96.0808 111.336C95.161 112.038 94.1074 112.543 92.9849 112.822C91.6641 113.119 90.4112 113.663 89.2914 114.424C88.6972 114.857 88.2508 115.463 88.0132 116.159C87.8096 116.907 87.8742 117.702 88.1958 118.408C88.478 119.171 88.9179 119.894 89.2665 120.724C89.6585 121.581 89.7634 122.541 89.5653 123.463C89.4263 123.948 89.1354 124.375 88.7353 124.683C88.3294 124.97 87.8689 125.17 87.3824 125.272C86.4579 125.396 85.5467 125.605 84.66 125.894C83.8607 126.297 83.2067 126.939 82.7887 127.73C82.3708 128.521 82.2096 129.423 82.3277 130.31C82.3919 130.73 82.5237 131.136 82.7178 131.514C82.9286 131.886 83.1731 132.239 83.4482 132.568C84.0387 133.206 84.5488 133.914 84.9671 134.676C85.1576 135.067 85.2482 135.499 85.2308 135.933C85.2134 136.368 85.0886 136.791 84.8675 137.166C84.4286 137.818 83.891 138.397 83.2739 138.884C82.7267 139.322 82.2483 139.84 81.8546 140.419C81.5089 140.96 81.2642 141.559 81.1325 142.187C80.8855 143.272 80.9962 144.408 81.4479 145.424C81.7944 146.194 82.3142 146.873 82.9668 147.408C83.5333 147.896 84.1752 148.288 84.8675 148.57Z" fill="#455A64"/>
<path d="M171.005 356.319H81.6056V361.066H171.005V356.319Z" fill="#E0E0E0"/>
<path d="M170.98 361.05C170.98 361.05 170.98 360.942 170.98 360.751C170.98 360.56 170.98 360.253 170.98 359.871C170.98 359.041 170.98 357.896 170.938 356.302L171.005 356.369C159.385 356.452 123.736 356.518 81.6056 356.518L81.8214 356.302V361.05L81.6056 360.834L144.918 360.926L164.008 360.992H169.196H170.548H171.021H170.582H169.254H164.116L145.092 361.058L81.6222 361.15H81.4064V356.07H81.6222C123.753 356.07 159.426 356.128 171.021 356.219H171.088V356.286C171.088 357.896 171.088 359.083 171.046 359.888C171.046 360.27 171.046 360.552 171.046 360.76C171.033 360.858 171.011 360.955 170.98 361.05Z" fill="#263238"/>
<path d="M90.968 274.033L72.0938 401.537H78.3852L95.4666 275.693V274.033H90.968Z" fill="#E0E0E0"/>
<path d="M90.968 274.033C90.968 274.033 91.3083 274.033 92.047 274.033H95.4666H95.5247V274.091C95.5247 274.589 95.5247 275.145 95.5247 275.751C93.4829 291.446 86.7101 341.844 78.5927 401.612V401.803H71.8448V401.554C77.19 366.03 81.921 334.116 85.3489 311.084C87.0753 299.597 88.4697 290.334 89.4408 283.918C89.9222 280.731 90.2708 278.257 90.5613 276.564L90.8518 274.664C90.9265 274.24 90.968 274.033 90.968 274.033C90.968 274.033 90.968 274.257 90.885 274.697C90.802 275.137 90.7356 275.792 90.6111 276.631C90.3704 278.291 90.0135 280.781 89.5487 284.034C88.6191 290.458 87.2662 299.754 85.5896 311.267C82.2032 334.266 77.522 366.113 72.3096 401.571L72.0938 401.322H78.3935L78.1777 401.504C86.32 341.736 93.1924 291.33 95.45 275.684C95.45 275.079 95.45 274.522 95.45 274.024L95.4998 274.074H92.1134L90.968 274.033Z" fill="#263238"/>
<path d="M161.618 274.033L180.89 401.537H174.59L157.119 275.693V274.033H161.618Z" fill="#E0E0E0"/>
<path d="M161.618 274.033H160.505H157.119L157.169 273.983C157.169 274.481 157.169 275.037 157.169 275.643C159.435 291.313 166.498 341.686 174.798 401.463L174.591 401.28H180.882L180.666 401.529C175.346 366.08 170.557 334.224 167.104 311.225C165.394 299.713 164.016 290.425 163.054 283.993C162.589 280.781 162.224 278.291 161.966 276.589C161.85 275.759 161.759 275.103 161.692 274.655C161.626 274.207 161.609 273.991 161.609 273.991C161.609 273.991 161.651 274.199 161.726 274.622C161.8 275.045 161.892 275.701 162.024 276.523C162.29 278.183 162.672 280.673 163.17 283.877C164.157 290.284 165.577 299.555 167.32 311.042C170.822 334.075 175.67 365.964 181.073 401.463V401.712H174.342V401.521C166.042 341.761 159.103 291.355 157.011 275.66C157.011 275.054 157.011 274.498 157.011 274V273.941H157.069H160.481C161.277 274.016 161.618 274.033 161.618 274.033Z" fill="#263238"/>
<path d="M126.94 274.033H121.562V401.537H126.94V274.033Z" fill="#E0E0E0"/>
<path d="M126.94 401.537C126.94 401.537 126.94 401.305 126.94 400.865C126.94 400.425 126.94 399.778 126.94 398.939C126.94 397.279 126.94 394.74 126.94 391.536C126.94 385.103 126.899 375.816 126.874 364.312C126.874 341.312 126.816 309.465 126.783 274.033L126.998 274.248H121.62L121.836 274.033C121.836 335.079 121.769 386.498 121.678 401.537L121.62 401.479H125.679H126.666H126.998H126.691H125.712H121.62H121.562V401.421C121.471 386.381 121.404 334.963 121.404 273.916V273.701H127.214V273.916C127.214 309.416 127.148 341.312 127.131 364.386C127.131 375.874 127.073 385.136 127.065 391.561C127.065 394.748 127.065 397.221 127.065 398.914C127.065 399.744 127.065 400.375 127.065 400.815C127.065 401.255 126.94 401.537 126.94 401.537Z" fill="#263238"/>
<path d="M162.688 265.509H88.893V275.095H162.688V265.509Z" fill="#455A64"/>
<path d="M111.427 265.782C110.591 266.622 109.689 267.393 108.73 268.09C107.696 268.837 106.615 269.517 105.493 270.123C102.74 271.604 99.7667 272.63 96.6867 273.161C95.4299 273.377 94.1598 273.508 92.8853 273.551C91.7135 273.601 90.5397 273.559 89.3744 273.427H89.64H90.3455C90.9431 273.427 91.8229 273.427 92.9019 273.427C94.1685 273.367 95.4299 273.225 96.6784 273.003C98.2062 272.719 99.7122 272.328 101.185 271.833C102.645 271.314 104.068 270.696 105.443 269.982C106.563 269.386 107.644 268.721 108.68 267.99C109.56 267.359 110.257 266.82 110.714 266.422L111.245 265.973L111.427 265.782Z" fill="#263238"/>
<path d="M122.01 272.082L121.827 272.016C121.711 271.966 121.537 271.875 121.304 271.784C120.619 271.523 119.906 271.339 119.18 271.236C118.036 271.075 116.873 271.117 115.743 271.36C114.26 271.677 112.876 272.349 111.71 273.319V273.203C114.379 273.854 117.122 274.153 119.869 274.091C121.436 274.053 122.998 273.894 124.541 273.618C125.35 273.527 126.136 273.297 126.865 272.937C127.216 272.734 127.484 272.414 127.621 272.032C127.74 271.643 127.725 271.226 127.579 270.846C127.39 270.402 127.096 270.011 126.721 269.707C126.346 269.403 125.903 269.196 125.43 269.103C124.499 268.891 123.552 268.76 122.599 268.712C120.796 268.585 118.985 268.621 117.188 268.82C112.063 269.381 107.157 271.207 102.912 274.132C102.306 274.539 101.858 274.896 101.55 275.128L101.077 275.477C101.077 275.477 101.227 275.344 101.534 275.104C101.841 274.863 102.264 274.498 102.87 274.083C104.561 272.878 106.375 271.857 108.282 271.036C111.106 269.802 114.1 269.002 117.163 268.663C118.973 268.462 120.798 268.42 122.616 268.538C123.58 268.591 124.538 268.724 125.479 268.937C125.964 269.066 126.422 269.279 126.832 269.567C127.246 269.877 127.561 270.301 127.737 270.787C127.891 271.208 127.891 271.67 127.737 272.091C127.592 272.511 127.297 272.863 126.907 273.078C126.16 273.451 125.354 273.69 124.525 273.784C122.971 274.061 121.397 274.217 119.819 274.249C117.06 274.312 114.304 274.005 111.627 273.336H111.502L111.602 273.253C112.802 272.265 114.228 271.59 115.752 271.285C116.891 271.047 118.063 271.017 119.213 271.194C119.945 271.303 120.662 271.501 121.346 271.784C121.753 271.958 122.01 272.082 122.01 272.082Z" fill="#263238"/>
<path d="M131.547 265.758C131.718 265.777 131.886 265.822 132.045 265.89C132.484 266.085 132.88 266.368 133.207 266.72C133.691 267.238 134.031 267.873 134.194 268.563C134.371 269.417 134.299 270.305 133.987 271.119C133.386 272.582 132.244 273.756 130.8 274.398C130.374 274.596 129.933 274.757 129.48 274.879L129.106 274.971C129.015 274.971 128.974 274.971 128.974 274.971C129.129 274.899 129.29 274.841 129.455 274.796C129.898 274.654 130.328 274.477 130.742 274.265C132.14 273.618 133.24 272.464 133.821 271.036C134.135 270.245 134.21 269.38 134.037 268.546C133.89 267.877 133.573 267.256 133.115 266.745C132.679 266.295 132.141 265.957 131.547 265.758Z" fill="#263238"/>
<path d="M143.1 265.716C142.541 265.952 142 266.229 141.482 266.546C140.259 267.344 139.206 268.376 138.386 269.584C137.574 270.799 136.874 272.085 136.294 273.427L135.747 274.639C135.614 274.921 135.539 275.079 135.531 275.079C135.561 274.918 135.611 274.762 135.68 274.614C135.796 274.315 135.962 273.892 136.178 273.377C136.729 272.011 137.422 270.706 138.245 269.484C139.076 268.258 140.156 267.22 141.415 266.438C141.8 266.209 142.206 266.018 142.627 265.866C142.742 265.824 142.858 265.788 142.976 265.758C143.051 265.716 143.1 265.708 143.1 265.716Z" fill="#263238"/>
<path d="M155.849 271.41L155.417 271.219C155.007 271.046 154.582 270.91 154.148 270.812C152.543 270.443 150.859 270.63 149.375 271.344C149.135 271.438 148.928 271.599 148.777 271.808C148.71 271.915 148.681 272.041 148.694 272.166C148.708 272.291 148.764 272.408 148.852 272.497C149.315 272.847 149.842 273.101 150.404 273.244C151.631 273.681 152.908 273.96 154.206 274.074C155.633 274.198 157.071 274.128 158.48 273.867C159.221 273.77 159.924 273.485 160.522 273.037C160.805 272.787 161.003 272.455 161.086 272.087C161.17 271.719 161.135 271.334 160.987 270.987C160.688 270.276 160.126 269.708 159.418 269.401C158.73 269.084 158.009 268.845 157.268 268.688C155.87 268.369 154.434 268.252 153.002 268.339C150.566 268.487 148.205 269.237 146.13 270.522C144.736 271.386 143.489 272.468 142.436 273.726C142.063 274.182 141.797 274.556 141.606 274.796L141.332 275.178C141.636 274.654 141.98 274.155 142.362 273.684C143.411 272.372 144.667 271.24 146.08 270.331C148.168 269.022 150.551 268.254 153.011 268.098C154.458 268.005 155.912 268.119 157.327 268.439C158.079 268.596 158.811 268.839 159.509 269.161C160.252 269.485 160.845 270.078 161.169 270.821C161.32 271.206 161.358 271.627 161.277 272.032C161.182 272.432 160.964 272.792 160.655 273.062C160.037 273.542 159.305 273.851 158.53 273.958C157.105 274.223 155.65 274.293 154.206 274.166C152.899 274.043 151.612 273.765 150.371 273.336C150.081 273.236 149.798 273.12 149.541 273.012C149.257 272.91 148.998 272.745 148.786 272.53C148.683 272.42 148.619 272.279 148.604 272.129C148.589 271.98 148.624 271.829 148.703 271.7C148.87 271.477 149.093 271.303 149.35 271.194C150.863 270.484 152.574 270.314 154.197 270.713C154.781 270.858 155.338 271.094 155.849 271.41Z" fill="#263238"/>
<path d="M108.008 143.59C105.277 144.643 103 146.619 101.575 149.176C99.1601 153.45 99.8075 155.559 100.438 158.09C101.069 160.622 102.181 165.627 102.239 165.303C102.297 164.979 108.008 143.59 108.008 143.59Z" fill="#A36957"/>
<path d="M108.273 143.615L113.353 140.602L136.967 131.762L132.327 171.453L114.897 182.426L104.572 177.263L103.542 165.776L108.273 143.615Z" fill="#A36957"/>
<path d="M107.659 204.014L98.4297 215.983L86.9923 213.293L77.8457 218.406L80.2693 222.714L104.539 224.341L113.096 206.703L107.659 204.014Z" fill="#7C3B29"/>
<path d="M79.6551 318.902L88.9677 339.088L103.991 332.141L94.3627 307.166L79.6551 318.902Z" fill="#A36957"/>
<path d="M87.2081 337.735L92.6446 348.11C92.6446 348.11 78.7172 362.511 80.0286 365.731L112.764 350.036L103.75 329.228L87.2081 337.735Z" fill="#0284C7"/>
<path d="M102.09 341.835C102.452 341.78 102.822 341.861 103.128 342.061C103.435 342.262 103.656 342.569 103.75 342.923C103.821 343.282 103.75 343.654 103.554 343.963C103.358 344.272 103.051 344.494 102.696 344.583C102.313 344.64 101.922 344.554 101.599 344.341C101.276 344.128 101.043 343.803 100.945 343.429C100.912 343.046 101.028 342.666 101.269 342.367C101.511 342.069 101.858 341.875 102.239 341.827" fill="#E0E0E0"/>
<g opacity="0.6">
<path d="M112.764 350.036L111.403 347.421L80.51 363.449C80.51 363.449 79.3563 364.777 80.012 365.731L112.764 350.036Z" fill="white"/>
</g>
<path d="M92.0387 348.202C92.1134 348.359 92.9517 348.044 93.9809 348.202C95.0101 348.359 95.7571 348.807 95.8733 348.675C95.9895 348.542 95.3089 347.728 94.0556 347.587C92.8023 347.446 91.9308 348.069 92.0387 348.202Z" fill="#263238"/>
<path d="M89.2831 351.264C89.2831 351.439 90.1131 351.381 91.0095 351.796C91.9059 352.211 92.379 352.85 92.5284 352.767C92.6778 352.684 92.3541 351.729 91.2668 351.231C90.1795 350.733 89.2084 351.09 89.2831 351.264Z" fill="#263238"/>
<path d="M89.2997 356.311C89.4657 356.311 89.2997 355.365 88.4697 354.651C87.6397 353.937 86.7267 353.978 86.7267 354.144C86.7267 354.31 87.4073 354.559 88.0796 355.124C88.7519 355.688 89.1337 356.369 89.2997 356.311Z" fill="#263238"/>
<path d="M90.47 344.201C90.6111 344.317 91.2336 343.744 92.13 343.371C93.0264 342.997 93.9062 342.948 93.9228 342.773C93.9394 342.599 92.9849 342.35 91.8976 342.773C90.8103 343.197 90.3372 344.118 90.47 344.201Z" fill="#263238"/>
<path d="M89.5155 342.126C89.5155 342.126 89.3495 341.919 89.2084 341.47C89.0217 340.829 88.9708 340.157 89.059 339.495C89.0764 339.268 89.1267 339.044 89.2084 338.831C89.2602 338.692 89.3484 338.569 89.4637 338.476C89.579 338.382 89.7173 338.322 89.8641 338.3C89.953 338.288 90.0433 338.297 90.1281 338.326C90.213 338.355 90.2902 338.403 90.3538 338.466C90.4638 338.592 90.5333 338.748 90.553 338.914C90.5742 339.19 90.5742 339.468 90.553 339.744C90.553 340.3 90.553 340.831 90.4202 341.47C90.3932 341.658 90.3155 341.834 90.1956 341.98C90.0756 342.126 89.9179 342.237 89.7396 342.3C89.4083 342.4 89.057 342.415 88.7187 342.342C87.807 342.183 86.9287 341.872 86.1208 341.421C85.8435 341.284 85.5954 341.096 85.3904 340.864C85.2792 340.727 85.2186 340.556 85.2186 340.379C85.2186 340.202 85.2792 340.031 85.3904 339.893C85.5017 339.794 85.6353 339.723 85.7799 339.687C85.9244 339.651 86.0756 339.651 86.2204 339.686C86.6692 339.806 87.1014 339.982 87.5069 340.209C88.0883 340.525 88.622 340.922 89.0922 341.387C89.4159 341.719 89.5653 341.927 89.5404 341.952C88.8664 341.391 88.1379 340.898 87.3658 340.483C86.9837 340.286 86.5797 340.136 86.1623 340.034C86.0715 340.01 85.9762 340.007 85.884 340.026C85.7918 340.044 85.7052 340.084 85.6311 340.142C85.5854 340.217 85.5655 340.304 85.5745 340.391C85.5835 340.478 85.6209 340.56 85.6809 340.624C85.8583 340.803 86.0663 340.949 86.2951 341.055C86.5423 341.192 86.7972 341.314 87.0587 341.421C87.5926 341.646 88.1491 341.813 88.7187 341.919C88.9909 341.989 89.2765 341.989 89.5487 341.919C89.6569 341.883 89.7527 341.817 89.8247 341.729C89.8968 341.641 89.9421 341.534 89.9554 341.421C90.0301 340.889 90.055 340.275 90.1048 339.761C90.1241 339.509 90.1241 339.257 90.1048 339.005C90.1048 338.789 89.9886 338.69 89.8309 338.698C89.474 338.698 89.3495 339.204 89.2914 339.586C89.2054 340.439 89.2815 341.301 89.5155 342.126Z" fill="#263238"/>
<path d="M79.4393 325.833L55.7262 266.812C55.7262 266.812 56.274 256.337 58.2162 253.026C60.1584 249.714 118.607 230.408 118.607 230.408C118.607 230.408 133.497 226.831 143.424 230.408C153.351 233.985 160.796 246.41 159.418 253.299C158.04 260.188 152.222 265.26 152.222 265.26L109.228 266.538L85.7971 275.087L101.567 320.322C101.567 320.322 93.5078 329.145 79.4393 325.833Z" fill="#263238"/>
<path d="M58.4403 286.267L57.8842 308.486L74.4344 308.884L76.8165 282.225L58.4403 286.267Z" fill="#A36957"/>
<path d="M56.8965 306.494L57.2036 318.205C57.2036 318.205 38.3543 324.978 38.1136 328.448L74.4095 328.813L75.53 306.17L56.8965 306.494Z" fill="#0284C7"/>
<path d="M68.4418 316.745C68.7909 316.856 69.0869 317.092 69.2736 317.407C69.4603 317.722 69.5246 318.095 69.4544 318.454C69.3551 318.801 69.1294 319.097 68.8219 319.284C68.5144 319.472 68.1477 319.537 67.7944 319.467C67.4267 319.348 67.1158 319.098 66.9212 318.764C66.7267 318.43 66.6623 318.036 66.7403 317.658C66.8846 317.307 67.1581 317.026 67.5041 316.871C67.8501 316.717 68.2423 316.701 68.5995 316.828" fill="#E0E0E0"/>
<g opacity="0.6">
<path d="M74.4012 328.813L74.3348 325.866L39.5578 326.622C39.5578 326.622 37.8978 327.302 38.1053 328.448L74.4012 328.813Z" fill="white"/>
</g>
<path d="M56.6143 318.015C56.6143 318.197 57.5024 318.28 58.3739 318.845C59.2454 319.409 59.6936 320.173 59.8596 320.106C60.0256 320.04 59.7683 319.011 58.7059 318.33C57.6435 317.649 56.5811 317.89 56.6143 318.015Z" fill="#263238"/>
<path d="M52.7963 319.55C52.7465 319.724 53.5184 320.031 54.1077 320.787C54.697 321.542 54.8713 322.339 55.0456 322.33C55.2199 322.322 55.3444 321.326 54.5891 320.405C53.8338 319.484 52.7963 319.384 52.7963 319.55Z" fill="#263238"/>
<path d="M50.5802 324.09C50.7462 324.09 51.0035 323.26 50.5802 322.272C50.1569 321.285 49.3103 320.903 49.2356 321.044C49.1609 321.185 49.6672 321.716 50.0158 322.521C50.3644 323.326 50.4059 324.065 50.5802 324.09Z" fill="#263238"/>
<path d="M56.9795 313.74C57.0542 313.906 57.8676 313.665 58.8719 313.74C59.8762 313.815 60.6481 314.138 60.7394 313.989C60.8307 313.84 60.092 313.201 58.9134 313.159C57.7348 313.118 56.8965 313.599 56.9795 313.74Z" fill="#263238"/>
<path d="M57.0293 311.457C56.9763 311.22 56.9763 310.973 57.0293 310.735C57.143 310.077 57.3917 309.45 57.7597 308.893C57.8804 308.698 58.0255 308.52 58.1913 308.362C58.3004 308.259 58.4351 308.188 58.5812 308.156C58.7273 308.124 58.8793 308.132 59.0213 308.179C59.1059 308.208 59.1828 308.256 59.246 308.319C59.3093 308.383 59.3574 308.46 59.3865 308.544C59.4358 308.704 59.4358 308.874 59.3865 309.034C59.2761 309.288 59.1486 309.535 59.0047 309.773C58.7225 310.246 58.4818 310.727 58.1249 311.258C58.0186 311.413 57.8719 311.536 57.7007 311.614C57.5296 311.691 57.3404 311.72 57.1538 311.698C56.8101 311.645 56.4865 311.502 56.2159 311.283C55.7083 310.912 55.2434 310.487 54.8298 310.013C54.6389 309.781 54.4563 309.548 54.2903 309.308C54.0994 309.062 53.9609 308.779 53.8836 308.478C53.8376 308.305 53.8539 308.121 53.9298 307.958C54.0056 307.796 54.1362 307.665 54.2986 307.59C54.4427 307.553 54.5937 307.552 54.7383 307.586C54.883 307.621 55.0169 307.69 55.1286 307.789C55.479 308.097 55.7886 308.448 56.0499 308.835C56.4335 309.372 56.7381 309.962 56.9546 310.586C57.0494 310.81 57.1028 311.049 57.1123 311.291C56.7503 310.492 56.3111 309.731 55.8009 309.017C55.5454 308.671 55.2501 308.356 54.9211 308.079C54.8505 308.017 54.7667 307.972 54.676 307.948C54.5854 307.924 54.4903 307.92 54.3982 307.938C54.323 307.984 54.2656 308.055 54.2355 308.137C54.2053 308.22 54.2042 308.311 54.2322 308.395C54.3086 308.634 54.4297 308.856 54.5891 309.05C54.7509 309.284 54.9255 309.508 55.112 309.723C55.5091 310.174 55.9544 310.58 56.44 310.935C56.6578 311.102 56.9102 311.218 57.1787 311.275C57.2926 311.288 57.4079 311.269 57.5119 311.221C57.6159 311.173 57.7045 311.096 57.768 311.001C58.0668 310.561 58.3573 310.022 58.598 309.573C58.7364 309.362 58.8585 309.14 58.9632 308.909C59.0379 308.702 58.9632 308.569 58.8553 308.511C58.5233 308.378 58.1996 308.752 57.9755 309.067C57.5138 309.798 57.1929 310.609 57.0293 311.457Z" fill="#263238"/>
<path d="M68.1015 224.581C68.1015 224.581 58.1415 223.793 57.0874 234.541C56.0333 245.29 54.8962 295.48 54.8962 295.48L78.0615 297.414L81.6471 246.112L118.607 230.408C118.607 230.408 74.7 223.204 68.1015 224.581Z" fill="#263238"/>
<path d="M108.962 210.073C108.962 210.073 102.945 226.939 104.09 228.823C105.236 230.707 120.69 238.434 120.69 238.434L159.401 253.299C162.089 248.387 163.458 242.863 163.377 237.264C163.377 227.544 149.915 210.073 149.915 210.073H108.962Z" fill="#263238"/>
<path d="M120.433 229.553C120.433 229.553 120.375 229.553 120.25 229.653L119.703 229.902L117.561 230.856L109.51 234.367L81.7301 246.319L81.8546 246.145C81.506 251.216 81.1242 256.686 80.7341 262.346C79.7879 275.585 78.9247 287.786 78.2441 297.439V297.613H78.0781L61.171 296.119L56.523 295.687L55.3112 295.555C55.1713 295.549 55.0322 295.53 54.8962 295.496C55.037 295.484 55.1787 295.484 55.3195 295.496L56.5313 295.571L61.1876 295.911L78.0781 297.248L77.8955 297.405C78.5512 287.753 79.3895 275.543 80.3025 262.305C80.7009 256.644 81.0827 251.174 81.4396 246.111V245.979L81.5558 245.929L109.402 234.118L117.495 230.723L119.669 229.827L120.234 229.611L120.433 229.553Z" fill="#455A64"/>
<path d="M151.226 231.238C150.853 231.182 150.488 231.082 150.139 230.939L147.225 230.001C144.042 228.916 140.779 228.083 137.465 227.511C134.163 226.97 130.791 227.015 127.505 227.644C126.152 227.958 124.816 228.343 123.504 228.798C123.821 228.596 124.157 228.426 124.508 228.291C125.456 227.891 126.436 227.575 127.438 227.345C130.763 226.614 134.198 226.526 137.556 227.088C140.892 227.647 144.168 228.517 147.342 229.686C148.562 230.117 149.541 230.516 150.222 230.757C150.571 230.884 150.907 231.046 151.226 231.238Z" fill="#455A64"/>
<path d="M145.748 222.349C144.623 222.279 143.495 222.279 142.37 222.349C141.324 222.415 140.087 222.581 138.701 222.739C137.315 222.897 135.813 223.087 134.244 223.386C131.554 223.813 128.976 224.77 126.658 226.2C125.731 226.84 124.851 227.548 124.027 228.316C124.175 228.044 124.365 227.798 124.591 227.586C125.16 226.965 125.794 226.409 126.484 225.926C128.801 224.397 131.419 223.381 134.161 222.946C135.746 222.639 137.274 222.465 138.66 222.324C140.046 222.183 141.291 222.058 142.353 222.025C143.185 221.984 144.018 222.02 144.843 222.133C145.155 222.155 145.46 222.228 145.748 222.349Z" fill="#455A64"/>
<path d="M108.008 143.59C108.008 143.59 101.426 164.697 101.575 170.739C101.725 176.782 104.231 193.979 103.941 197.299C103.65 200.619 104.837 210.015 108.921 210.015H149.89C149.89 210.015 159.144 207.45 159.543 201.898C159.941 196.345 147.093 142.42 147.093 142.42C147.093 142.42 144.669 132.51 141.283 131.787C137.896 131.065 134.111 131.787 131.845 138.784C129.58 145.781 128.824 155.658 123.985 160.497C119.146 165.336 112.266 170.764 112.266 170.764C112.266 170.764 106.713 166.116 106.456 159.825C106.198 153.533 108.564 143.349 108.564 143.349L108.008 143.59Z" fill="#0284C7"/>
<path d="M151.135 147.292C150.056 145.672 148.471 144.455 146.628 143.831C144.798 143.215 142.894 142.849 140.967 142.743C139.251 142.509 137.508 142.571 135.813 142.926C134.153 143.358 133.456 145.416 132.758 147.01C131.641 154.1 132.017 161.346 133.862 168.283C134.023 169.338 134.433 170.34 135.058 171.206C135.683 172.072 136.505 172.777 137.456 173.263C138.854 174.283 140.482 174.944 142.196 175.188C145.267 175.421 148.097 173.196 149.533 170.474C150.969 167.751 151.292 164.597 151.583 161.535C151.777 159.615 151.962 157.697 152.139 155.783C152.421 152.878 152.654 149.757 151.135 147.292Z" fill="#A36957"/>
<path d="M114.075 210.53C113.478 210.385 112.923 210.1 112.457 209.7C111.289 208.769 110.351 207.582 109.718 206.23C109.09 204.907 108.622 203.514 108.323 202.08C108.15 201.495 108.055 200.889 108.041 200.279C108.293 200.832 108.485 201.411 108.614 202.005C108.994 203.401 109.494 204.762 110.108 206.072C110.719 207.372 111.582 208.537 112.648 209.5C113.478 210.164 114.108 210.463 114.075 210.53Z" fill="#263238"/>
<path d="M135.755 184.368C135.55 184.589 135.318 184.784 135.066 184.949C134.399 185.424 133.691 185.838 132.949 186.185C131.837 186.698 130.658 187.05 129.447 187.231C127.959 187.446 126.445 187.382 124.981 187.04C122.332 186.366 119.924 184.966 118.026 182.998C117.45 182.419 116.915 181.8 116.424 181.147C116.236 180.911 116.075 180.655 115.943 180.384C116.009 180.334 116.773 181.38 118.233 182.782C120.145 184.633 122.504 185.955 125.081 186.617C127.663 187.203 130.365 186.959 132.8 185.92C134.701 185.09 135.705 184.26 135.755 184.368Z" fill="#263238"/>
<path d="M113.569 209.766C113.478 209.84 112.913 209.193 112.739 208.189C112.646 207.895 112.614 207.585 112.645 207.278C112.677 206.971 112.771 206.673 112.922 206.404C113.046 206.404 112.98 207.193 113.162 208.064C113.345 208.936 113.71 209.699 113.569 209.766Z" fill="#263238"/>
<path d="M130.542 147.192C130.17 147.272 129.824 147.446 129.538 147.698C129.218 148.013 128.996 148.414 128.899 148.852C128.82 149.138 128.813 149.439 128.878 149.729C128.944 150.018 129.079 150.287 129.272 150.512L129.422 150.662L129.214 150.728C128.706 150.894 128.237 151.165 127.838 151.522C127.44 151.879 127.12 152.315 126.899 152.803C126.603 153.386 126.456 154.032 126.471 154.685C126.485 155.338 126.661 155.977 126.982 156.546L127.231 156.953L126.766 156.828C126.231 156.692 125.668 156.72 125.15 156.909C124.632 157.098 124.183 157.439 123.862 157.888C123.541 158.336 123.363 158.871 123.351 159.423C123.338 159.974 123.493 160.516 123.794 160.978L123.413 161.169C123.243 160.836 122.956 160.577 122.606 160.442C122.257 160.307 121.87 160.306 121.52 160.439C121.129 160.55 120.774 160.762 120.49 161.054C120.206 161.345 120.003 161.705 119.902 162.099C119.667 162.908 119.549 163.747 119.553 164.589L119.52 165.751L119.163 164.606C119.04 164.311 118.819 164.069 118.538 163.918C118.257 163.767 117.933 163.716 117.619 163.776C117.312 163.844 117.025 163.985 116.784 164.187C116.543 164.389 116.354 164.647 116.233 164.938C115.685 166.108 116.017 167.428 116.233 168.498H115.901C115.898 168.223 115.833 167.951 115.711 167.704C115.589 167.457 115.413 167.241 115.196 167.071C114.811 166.743 114.323 166.561 113.818 166.556C113.412 166.582 113.027 166.745 112.726 167.018C112.425 167.291 112.224 167.657 112.158 168.058C112.032 168.58 112.103 169.129 112.357 169.602C112.54 169.918 112.706 170.042 112.689 170.067C112.518 169.966 112.375 169.823 112.274 169.652C112.02 169.229 111.905 168.738 111.946 168.246C111.986 167.755 112.179 167.289 112.498 166.913C112.664 166.722 112.868 166.568 113.097 166.459C113.325 166.351 113.573 166.29 113.826 166.282C114.403 166.272 114.964 166.466 115.411 166.83C115.662 167.03 115.865 167.282 116.009 167.569C116.152 167.855 116.231 168.17 116.241 168.49V169.859L115.918 168.531C115.754 167.941 115.637 167.339 115.569 166.73C115.482 166.05 115.582 165.358 115.86 164.73C116.001 164.379 116.226 164.067 116.516 163.823C116.805 163.578 117.15 163.408 117.52 163.327C117.929 163.247 118.353 163.311 118.72 163.51C119.086 163.708 119.372 164.028 119.528 164.415L119.122 164.473C119.119 163.599 119.242 162.73 119.487 161.891C119.629 161.447 119.858 161.036 120.159 160.68C120.491 160.312 120.924 160.052 121.404 159.933C121.862 159.798 122.349 159.798 122.807 159.933C123.037 160.008 123.246 160.135 123.42 160.303C123.594 160.471 123.728 160.677 123.811 160.904L124.409 162.564L123.429 161.061C123.077 160.53 122.895 159.905 122.907 159.268C122.919 158.631 123.125 158.012 123.497 157.495C123.869 156.978 124.39 156.586 124.99 156.372C125.591 156.158 126.242 156.132 126.857 156.297L126.641 156.588C126.294 155.965 126.108 155.265 126.1 154.552C126.091 153.839 126.26 153.135 126.592 152.504C126.836 151.98 127.188 151.513 127.626 151.136C128.064 150.758 128.577 150.478 129.131 150.313L129.073 150.529C128.859 150.274 128.712 149.969 128.646 149.643C128.579 149.317 128.595 148.98 128.691 148.661C128.813 148.194 129.073 147.774 129.438 147.458C129.666 147.264 129.936 147.128 130.227 147.059C130.338 147.089 130.444 147.133 130.542 147.192Z" fill="#0284C7"/>
<path d="M108.207 143.739C108.207 143.739 108.257 143.739 108.323 143.897C108.411 144.07 108.461 144.259 108.473 144.453C108.489 144.769 108.423 145.083 108.282 145.366C108.086 145.758 107.743 146.056 107.327 146.196V146.005C107.694 146.308 107.989 146.689 108.191 147.119C108.393 147.55 108.498 148.02 108.498 148.495C108.523 149.111 108.382 149.723 108.09 150.266C107.798 150.809 107.365 151.264 106.838 151.583V151.276C107.342 151.685 107.718 152.23 107.921 152.846C108.124 153.463 108.145 154.125 107.983 154.753C107.591 156.09 106.898 157.319 105.958 158.347L105.617 158.082C105.78 157.904 105.98 157.766 106.204 157.677C106.428 157.588 106.669 157.552 106.909 157.57C107.149 157.589 107.382 157.662 107.589 157.783C107.797 157.905 107.974 158.072 108.107 158.273C108.322 158.633 108.443 159.042 108.457 159.461C108.472 159.881 108.38 160.297 108.19 160.671C107.836 161.349 107.35 161.95 106.763 162.439L106.547 162.082C106.846 161.965 107.166 161.909 107.487 161.92C107.808 161.93 108.124 162.006 108.414 162.143C108.705 162.28 108.965 162.475 109.177 162.716C109.39 162.957 109.551 163.239 109.651 163.544C109.75 163.85 109.787 164.172 109.757 164.492C109.728 164.812 109.633 165.123 109.479 165.405C109.325 165.687 109.116 165.934 108.863 166.132C108.609 166.33 108.319 166.474 108.008 166.556L107.535 166.689L107.817 166.282C108.015 166.03 108.278 165.837 108.578 165.725C108.878 165.612 109.204 165.584 109.518 165.643C110.067 165.714 110.579 165.958 110.979 166.34C111.277 166.659 111.508 167.034 111.66 167.443C111.813 167.852 111.883 168.286 111.867 168.722C111.876 169.262 111.831 169.801 111.735 170.332C111.715 170.519 111.674 170.703 111.61 170.88C111.544 170.88 111.718 170.1 111.668 168.731C111.664 167.917 111.349 167.136 110.788 166.548C110.439 166.253 110.013 166.063 109.56 166C109.304 165.958 109.042 165.986 108.801 166.081C108.56 166.176 108.349 166.334 108.19 166.539L108 166.265C108.468 166.1 108.862 165.772 109.11 165.341C109.358 164.91 109.444 164.405 109.352 163.917C109.278 163.654 109.152 163.409 108.982 163.197C108.811 162.984 108.6 162.808 108.36 162.678C108.12 162.549 107.856 162.469 107.585 162.444C107.313 162.418 107.039 162.448 106.779 162.53L105.817 162.871L106.564 162.174C107.108 161.712 107.557 161.148 107.883 160.514C108.044 160.209 108.123 159.868 108.115 159.524C108.106 159.179 108.009 158.843 107.834 158.546C107.738 158.404 107.612 158.283 107.464 158.195C107.317 158.106 107.151 158.051 106.98 158.034C106.809 158.016 106.636 158.037 106.474 158.094C106.311 158.151 106.163 158.243 106.041 158.364L105.7 158.107C106.604 157.132 107.276 155.966 107.668 154.695C107.821 154.142 107.813 153.556 107.643 153.008C107.474 152.459 107.151 151.97 106.713 151.599L106.472 151.433L106.73 151.284C107.205 151.001 107.596 150.597 107.863 150.112C108.13 149.628 108.263 149.081 108.249 148.528C108.26 148.09 108.176 147.655 108.003 147.252C107.829 146.849 107.57 146.489 107.244 146.196L107.07 146.08L107.277 146.022C107.634 145.902 107.931 145.649 108.107 145.316C108.251 145.063 108.328 144.777 108.332 144.486C108.337 144.232 108.295 143.978 108.207 143.739Z" fill="#0284C7"/>
<g opacity="0.3">
<path d="M116.632 181.33C116.92 184.463 118.432 187.356 120.84 189.381C122.047 190.367 123.47 191.053 124.994 191.385C126.517 191.717 128.096 191.684 129.604 191.29C131.104 190.859 132.456 190.024 133.513 188.877C134.57 187.729 135.291 186.313 135.597 184.783C133.534 185.843 131.332 186.609 129.057 187.057C126.602 187.388 124.103 187.002 121.863 185.944C119.623 184.887 117.737 183.204 116.432 181.098C116.54 181.222 116.656 181.338 116.764 181.455" fill="black"/>
</g>
<g opacity="0.3">
<path d="M108.024 200.86C107.733 202.416 107.849 204.021 108.361 205.519C108.873 207.017 109.763 208.357 110.946 209.409C111.171 209.663 111.459 209.855 111.781 209.964C112.102 210.073 112.447 210.096 112.78 210.031C110.477 207.337 108.862 204.125 108.074 200.669" fill="black"/>
</g>
<path d="M140.137 140.328C140.137 140.328 130.866 141.781 133.107 154.961C135.348 168.141 151.367 190.46 151.367 190.46L116.349 211.816L120.433 221.303L165.909 202.586C165.909 202.586 170.391 197.972 168.814 192.834C167.237 187.696 155.534 155.334 155.534 155.334C155.534 155.334 151.209 138.087 140.137 140.328Z" fill="#A36957"/>
<path d="M85.7971 219.95L98.3301 212.032L114.93 212.812L116.324 211.849L120.408 221.336C120.408 221.336 115.934 223.477 113.594 223.668L99.0937 222.564L83.6889 221.411L85.7971 219.95Z" fill="#A36957"/>
<path d="M151.326 190.717C151.018 190.385 150.74 190.027 150.496 189.647C149.998 188.941 149.292 187.904 148.437 186.617C146.736 184.028 144.47 180.401 142.137 176.292C139.805 172.184 137.863 168.374 136.518 165.585C135.846 164.191 135.323 163.054 134.975 162.265C134.763 161.868 134.591 161.451 134.46 161.02C134.707 161.395 134.924 161.789 135.107 162.199L136.767 165.461C138.178 168.208 140.17 171.984 142.494 176.085C144.818 180.185 147.034 183.837 148.67 186.46L150.612 189.564C150.883 189.927 151.122 190.313 151.326 190.717Z" fill="#7C3B29"/>
<path d="M159.941 193.722C158.616 192.888 157.229 192.158 155.791 191.539C154.286 191.059 152.746 190.698 151.184 190.46C152.799 190.345 154.419 190.576 155.936 191.139C157.454 191.702 158.833 192.582 159.982 193.722H159.941Z" fill="#7C3B29"/>
<path d="M35.3165 180.384C35.6319 181.347 48.2147 223.635 48.2147 223.635L120.425 228.823L123.081 224.341L82.7593 221.303L71.4464 177.91C71.2168 177.039 70.672 176.284 69.9175 175.792C69.163 175.3 68.2526 175.105 67.3628 175.246L35.3165 180.384Z" fill="#455A64"/>
<path d="M58.1 198.129C58.7059 199.391 58.4569 200.769 57.5273 201.217C56.5977 201.665 55.361 201.009 54.7551 199.756C54.1492 198.503 54.3982 197.117 55.3195 196.668C56.2408 196.22 57.4941 196.876 58.1 198.129Z" fill="#FAFAFA"/>
<path d="M121.695 226.698H121.479H120.873L118.507 226.565L109.759 225.984L80.4602 223.876H80.3108L80.2693 223.735C79.8792 222.374 79.4393 220.929 79.0409 219.469L70.1848 188.294L67.5537 178.848C67.2549 177.753 67.0225 176.89 66.8565 176.267C66.7901 175.993 66.732 175.777 66.6905 175.595C66.662 175.52 66.6452 175.442 66.6407 175.362C66.6819 175.432 66.7127 175.508 66.732 175.586C66.7818 175.761 66.8565 175.977 66.9395 176.25C67.1304 176.865 67.3877 177.711 67.7114 178.799L70.4836 188.211L79.4642 219.311C79.8792 220.772 80.2942 222.216 80.6843 223.577L80.4934 223.419L109.784 225.669L118.516 226.382L120.873 226.59L121.487 226.656C121.558 226.659 121.628 226.673 121.695 226.698Z" fill="#263238"/>
<path d="M131.862 97.4752L131.796 94.2216L112.141 91.3C106.099 90.9099 99.849 97.193 99.6913 103.244C99.5419 109.967 99.6249 118.184 100.621 123.164C102.63 133.124 110.39 134.128 110.39 134.128L110.838 144.088L133.091 143.466L131.862 97.4752Z" fill="#A36957"/>
<path d="M103.875 110.29C103.883 110.627 104.024 110.946 104.266 111.179C104.509 111.412 104.833 111.54 105.169 111.535C105.334 111.542 105.498 111.516 105.652 111.458C105.806 111.401 105.947 111.313 106.067 111.2C106.187 111.087 106.283 110.951 106.35 110.801C106.417 110.651 106.453 110.488 106.456 110.324C106.445 109.987 106.304 109.669 106.062 109.435C105.821 109.201 105.497 109.07 105.161 109.07C104.996 109.064 104.831 109.09 104.676 109.148C104.522 109.206 104.38 109.295 104.26 109.409C104.14 109.522 104.044 109.659 103.978 109.811C103.912 109.962 103.877 110.125 103.875 110.29Z" fill="#263238"/>
<path d="M102.007 107.444C102.173 107.601 103.128 106.838 104.497 106.788C105.867 106.738 106.929 107.385 107.07 107.211C107.211 107.037 106.97 106.838 106.514 106.531C105.895 106.139 105.17 105.948 104.439 105.983C103.717 106.012 103.023 106.267 102.455 106.713C102.09 107.07 101.932 107.369 102.007 107.444Z" fill="#263238"/>
<path d="M116.847 110.008C116.86 110.344 117.002 110.661 117.243 110.895C117.484 111.128 117.806 111.26 118.142 111.261C118.307 111.267 118.471 111.24 118.626 111.181C118.78 111.123 118.921 111.034 119.041 110.921C119.16 110.807 119.256 110.671 119.323 110.52C119.39 110.369 119.425 110.206 119.429 110.041C119.42 109.704 119.279 109.384 119.037 109.15C118.795 108.916 118.471 108.786 118.134 108.788C117.969 108.783 117.805 108.81 117.65 108.868C117.496 108.927 117.355 109.015 117.235 109.129C117.116 109.243 117.02 109.379 116.953 109.53C116.887 109.681 116.851 109.843 116.847 110.008Z" fill="#263238"/>
<path d="M115.669 107.145C115.835 107.311 116.781 106.547 118.159 106.497C119.537 106.448 120.591 107.095 120.74 106.921C120.89 106.746 120.632 106.539 120.176 106.24C119.561 105.845 118.838 105.653 118.109 105.692C117.386 105.713 116.689 105.97 116.125 106.423C115.719 106.763 115.586 107.07 115.669 107.145Z" fill="#263238"/>
<path d="M111.046 117.644C110.303 117.449 109.539 117.343 108.772 117.329C108.415 117.329 108.083 117.254 108.008 117.013C107.966 116.647 108.035 116.277 108.207 115.951C108.506 115.121 108.813 114.167 109.145 113.212C110.44 109.311 111.369 106.107 111.212 106.057C111.054 106.008 109.875 109.128 108.572 113.029C108.257 113.992 107.958 114.905 107.676 115.785C107.473 116.221 107.429 116.714 107.551 117.179C107.607 117.304 107.691 117.413 107.796 117.5C107.901 117.586 108.025 117.647 108.157 117.677C108.356 117.724 108.56 117.743 108.763 117.736C109.525 117.804 110.292 117.773 111.046 117.644Z" fill="#263238"/>
<path d="M110.39 134.145C115.239 134.029 119.965 132.594 124.06 129.995C124.06 129.995 120.948 137.174 110.498 136.635L110.39 134.145Z" fill="#7C3B29"/>
<path d="M111.768 120.964C112.018 120.619 112.352 120.344 112.739 120.166C113.125 119.987 113.551 119.91 113.976 119.943C114.286 119.964 114.59 120.049 114.867 120.192C115.143 120.334 115.388 120.532 115.586 120.773C115.782 120.998 115.904 121.279 115.935 121.576C115.966 121.873 115.905 122.172 115.76 122.433C115.549 122.693 115.263 122.883 114.942 122.978C114.62 123.073 114.278 123.068 113.959 122.964C113.294 122.757 112.677 122.422 112.141 121.977C111.982 121.868 111.841 121.733 111.726 121.578C111.676 121.502 111.649 121.413 111.649 121.321C111.649 121.229 111.676 121.14 111.726 121.064" fill="#7C3B29"/>
<path d="M115.171 118.441C114.947 118.441 115.005 119.943 113.752 121.064C112.498 122.184 110.896 122.085 110.896 122.3C110.896 122.516 111.261 122.574 111.942 122.566C112.825 122.54 113.671 122.205 114.333 121.62C114.967 121.059 115.357 120.273 115.42 119.429C115.453 118.798 115.27 118.424 115.171 118.441Z" fill="#263238"/>
<path d="M115.088 101.725C115.237 102.09 116.615 101.858 118.25 101.99C119.885 102.123 121.222 102.513 121.429 102.165C121.52 101.999 121.271 101.65 120.732 101.335C120.006 100.913 119.193 100.664 118.356 100.605C117.519 100.546 116.679 100.679 115.901 100.994C115.312 101.26 115.021 101.542 115.088 101.725Z" fill="#263238"/>
<path d="M102.356 103.401C102.613 103.709 103.559 103.343 104.705 103.277C105.85 103.211 106.838 103.41 107.053 103.069C107.145 102.903 106.979 102.596 106.539 102.314C105.956 101.969 105.28 101.815 104.605 101.874C103.931 101.916 103.285 102.162 102.754 102.58C102.364 102.92 102.239 103.252 102.356 103.401Z" fill="#263238"/>
<path d="M97.11 91.0676C98.77 94.5868 102.356 99.8241 106.24 100.198C108.176 100.364 110.122 100.031 111.893 99.2324C113.664 98.4333 115.201 97.194 116.358 95.6326C117.005 98.4878 120.225 99.9403 123.122 100.347C125.168 100.719 127.277 100.527 129.223 99.7909C130.19 99.4134 131.044 98.7952 131.705 97.9948C132.366 97.1944 132.811 96.2385 132.999 95.2176C133.265 93.1675 130.235 88.2124 128.193 87.8721" fill="#263238"/>
<path d="M128.509 142.478C128.637 144.106 129.264 145.654 130.304 146.914C131.343 148.173 132.745 149.081 134.319 149.516C134.272 150.848 134.699 152.153 135.525 153.199C136.351 154.245 137.522 154.963 138.828 155.225C140.135 155.487 141.492 155.277 142.658 154.631C143.823 153.985 144.722 152.946 145.192 151.699C145.366 151.025 145.646 150.384 146.022 149.798C147.001 148.545 148.927 148.794 150.437 148.304C153.16 147.425 154.338 144.088 154.031 141.241C153.939 140.693 153.914 140.135 153.957 139.581C154.123 138.444 155.019 137.572 155.683 136.626C158.422 132.742 157.277 127.106 154.239 123.446C153.226 122.226 151.948 120.956 152.048 119.371C152.192 118.502 152.472 117.662 152.878 116.881C153.377 115.53 153.46 114.06 153.115 112.662C152.77 111.264 152.014 110.001 150.944 109.037C150.575 108.794 150.286 108.448 150.114 108.041C150.06 107.767 150.06 107.485 150.114 107.211C150.281 105.095 149.641 102.994 148.324 101.33C147.006 99.6653 145.107 98.5612 143.009 98.2388C142.755 98.23 142.504 98.1737 142.27 98.0728C141.623 97.7325 141.598 96.8444 141.515 96.1223C141.291 94.205 139.855 90.636 138.353 89.3827C134.286 85.9133 130.351 88.7353 128.949 90.055C128.949 90.055 126.168 103.833 126.708 106.406C127.247 108.979 129.131 115.37 128.368 118.275C127.604 121.18 126.401 127.131 127.538 129.754C128.675 132.377 128.509 142.478 128.509 142.478Z" fill="#263238"/>
<path d="M143.698 98.1474C143.698 98.1474 143.524 98.33 143.167 98.5873C142.652 98.9438 142.114 99.2654 141.556 99.5501C137.843 101.475 133.614 102.169 129.48 101.534C128.856 101.446 128.24 101.31 127.637 101.127C127.412 101.08 127.194 101.002 126.99 100.895C126.99 100.82 127.961 101.061 129.48 101.235C131.506 101.453 133.552 101.4 135.564 101.077C137.574 100.745 139.529 100.139 141.374 99.2762C142.835 98.6205 143.656 98.0893 143.698 98.1474Z" fill="#455A64"/>
<path d="M145.026 99.1269C144.958 99.414 144.858 99.6925 144.727 99.9569C144.604 100.275 144.457 100.583 144.287 100.878C144.086 101.281 143.862 101.672 143.615 102.049C142.982 103.044 142.254 103.975 141.44 104.829C140.435 105.868 139.322 106.797 138.12 107.601C136.908 108.386 135.617 109.042 134.269 109.56C133.164 109.971 132.022 110.271 130.858 110.456C130.413 110.539 129.964 110.594 129.513 110.622C129.173 110.646 128.832 110.646 128.492 110.622C128.201 110.648 127.907 110.632 127.621 110.573C127.621 110.49 128.866 110.506 130.8 110.124C131.932 109.898 133.043 109.573 134.12 109.153C136.76 108.116 139.155 106.538 141.15 104.522C141.96 103.697 142.696 102.803 143.349 101.849C144.478 100.239 144.943 99.0937 145.026 99.1269Z" fill="#455A64"/>
<path d="M137.822 150.313C137.822 150.313 137.996 150.313 138.303 150.263C138.752 150.159 139.156 149.915 139.457 149.566C139.946 149.025 140.216 148.32 140.212 147.59C140.186 146.618 140.009 145.654 139.689 144.735C139.244 143.576 139.158 142.309 139.44 141.1C139.872 139.788 140.917 138.784 141.855 137.705C142.348 137.181 142.755 136.581 143.059 135.929C143.196 135.597 143.261 135.239 143.249 134.88C143.238 134.521 143.15 134.168 142.992 133.846C142.614 133.174 142.079 132.605 141.432 132.186C140.785 131.713 140.071 131.298 139.382 130.791C138.649 130.311 138.072 129.628 137.722 128.824C137.589 128.414 137.543 127.981 137.587 127.552C137.631 127.123 137.765 126.708 137.979 126.334C138.759 124.898 139.98 123.844 140.262 122.491C140.366 121.838 140.329 121.171 140.153 120.534C139.977 119.896 139.666 119.304 139.241 118.798C138.53 117.849 137.717 116.98 136.817 116.208C136.078 115.543 135.4 114.812 134.792 114.025C134.329 113.424 133.972 112.747 133.738 112.025C133.603 111.565 133.547 111.085 133.572 110.606C133.583 110.442 133.613 110.28 133.663 110.124C133.637 110.75 133.716 111.375 133.896 111.975C134.587 113.552 135.663 114.931 137.025 115.984C137.95 116.754 138.785 117.625 139.515 118.582C139.929 119.132 140.256 119.742 140.486 120.391C140.744 121.09 140.796 121.847 140.635 122.574C140.312 124.118 139.042 125.197 138.344 126.533C138.154 126.854 138.035 127.212 137.995 127.583C137.955 127.954 137.995 128.329 138.112 128.683C138.431 129.403 138.953 130.014 139.614 130.443C140.27 130.932 140.992 131.347 141.656 131.837C142.348 132.3 142.918 132.924 143.316 133.655C143.499 134.029 143.599 134.439 143.611 134.855C143.622 135.272 143.544 135.686 143.383 136.07C143.063 136.768 142.628 137.408 142.096 137.962C141.133 139.05 140.121 140.021 139.722 141.199C139.444 142.335 139.505 143.526 139.897 144.627C140.205 145.582 140.362 146.579 140.361 147.582C140.342 148.359 140.031 149.1 139.49 149.657C139.157 150.016 138.712 150.25 138.228 150.321C138.093 150.343 137.956 150.34 137.822 150.313Z" fill="#455A64"/>
<path d="M380.464 401.537C380.464 401.654 303.016 401.753 207.508 401.753C112 401.753 34.5363 401.654 34.5363 401.537C34.5363 401.421 111.967 401.322 207.508 401.322C303.05 401.322 380.464 401.413 380.464 401.537Z" fill="#263238"/>
</svg>
