<svg width="269" height="269" viewBox="0 0 269 269" fill="none" xmlns="http://www.w3.org/2000/svg">
<g clip-path="url(#clip0_15_1602)" filter="url(#filter0_d_15_1602)">
<path d="M136.835 170.375C160.231 170.375 179.198 151.409 179.198 128.012C179.198 104.616 160.231 85.6494 136.835 85.6494C113.438 85.6494 94.4719 104.616 94.4719 128.012C94.4719 151.409 113.438 170.375 136.835 170.375Z" fill="#A0616A"/>
<path d="M101.771 179.861L110.602 157.294L156.228 150.425L161.13 200.381L115.013 201.363L101.771 179.861Z" fill="#A0616A"/>
<path d="M179.608 135.829C179.058 138.031 177.947 143.276 176.211 143.302C174.793 143.322 173.436 120.57 174.853 116.806C176.48 112.483 172.204 107.014 168.983 104.206C163.192 99.1581 150.337 109.997 137.265 105.087C136.918 104.957 136.987 104.972 132.86 103.325C120.158 98.2572 119.491 98.111 118.763 98.0387C112.606 97.4295 105.091 102.468 102.023 108.611C98.833 114.997 101.498 120.475 98.4986 135.924C98.149 137.725 97.6001 140.291 96.7365 140.329C95.1576 140.398 93.616 131.965 93.2122 129.757C91.5207 120.503 89.8898 111.581 93.2122 101.563C93.5747 100.47 95.8083 96.4143 100.261 88.3471C106.675 76.7256 109.901 70.8929 110.833 69.8449C117.52 62.3259 129.69 55.4667 139.908 58.3912C145.073 59.8694 144.147 62.2458 150.481 64.5586C161.769 68.6799 171.579 63.6397 173.388 67.2018C174.347 69.0886 171.665 70.6443 171.626 74.2502C171.559 80.4374 179.385 82.2253 183.961 88.3471C186.421 91.6381 190.632 91.6735 179.608 135.829Z" fill="#323232"/>
<path d="M232.091 217.145C230.383 219.064 228.612 220.943 226.777 222.778C202.129 247.425 169.357 261 134.5 261C104.372 261 75.8045 250.859 52.6922 232.192C52.6775 232.182 52.6676 232.172 52.653 232.158C49.5868 229.685 46.6186 227.056 43.7534 224.279C43.8073 223.847 43.8663 223.42 43.93 222.998C44.3323 220.153 44.7788 217.439 45.2792 214.942C49.3757 194.475 103.278 172.986 104.681 172.427C104.701 172.422 104.711 172.417 104.711 172.417C104.711 172.417 111.648 197.987 141.373 197.659C161.62 197.438 157.696 172.417 157.696 172.417C157.696 172.417 157.941 172.466 158.402 172.564C164.25 173.806 204.852 182.725 220.87 194.897C225.752 198.605 229.255 206.504 231.772 215.924C231.879 216.326 231.982 216.738 232.091 217.145Z" fill="#0284C7"/>
<path d="M226.777 38.2228C202.129 13.5754 169.357 0 134.5 0C99.6427 0 66.8707 13.5754 42.2227 38.2228C17.575 62.8708 4 95.6429 4 130.5C4 162.316 15.3084 192.394 36.0314 216.144C38.0085 218.416 40.0739 220.628 42.2227 222.778C42.7281 223.283 43.2383 223.788 43.7535 224.279C46.6186 227.056 49.5868 229.685 52.653 232.158C52.6677 232.172 52.6775 232.182 52.6922 232.192C75.8045 250.859 104.372 261 134.5 261C169.357 261 202.129 247.425 226.777 222.778C228.612 220.943 230.383 219.064 232.091 217.145C253.368 193.243 265 162.767 265 130.5C265 95.6429 251.425 62.8708 226.777 38.2228ZM231.772 215.924C227.911 220.315 223.76 224.445 219.345 228.277C210.97 235.562 201.649 241.783 191.596 246.739C188.069 248.48 184.453 250.064 180.754 251.483C166.384 256.997 150.788 260.019 134.5 260.019C118.781 260.019 103.71 257.203 89.7621 252.052C84.0367 249.942 78.5028 247.435 73.1895 244.565C72.4094 244.143 71.6344 243.716 70.8641 243.28C66.8117 240.984 62.8918 238.477 59.1289 235.769C53.7372 231.903 48.6546 227.63 43.93 222.998C41.2808 220.403 38.7493 217.7 36.3307 214.889C16.7998 192.203 4.9812 162.708 4.9812 130.5C4.9812 59.0835 63.0831 0.981203 134.5 0.981203C205.917 0.981203 264.019 59.0835 264.019 130.5C264.019 163.204 251.837 193.111 231.772 215.924Z" fill="#3F3D56" fill-opacity="0.3"/>
</g>
<defs>
<filter id="filter0_d_15_1602" x="0" y="0" width="269" height="269" filterUnits="userSpaceOnUse" color-interpolation-filters="sRGB">
<feFlood flood-opacity="0" result="BackgroundImageFix"/>
<feColorMatrix in="SourceAlpha" type="matrix" values="0 0 0 0 0 0 0 0 0 0 0 0 0 0 0 0 0 0 127 0" result="hardAlpha"/>
<feOffset dy="4"/>
<feGaussianBlur stdDeviation="2"/>
<feComposite in2="hardAlpha" operator="out"/>
<feColorMatrix type="matrix" values="0 0 0 0 0 0 0 0 0 0 0 0 0 0 0 0 0 0 0.25 0"/>
<feBlend mode="normal" in2="BackgroundImageFix" result="effect1_dropShadow_15_1602"/>
<feBlend mode="normal" in="SourceGraphic" in2="effect1_dropShadow_15_1602" result="shape"/>
</filter>
<clipPath id="clip0_15_1602">
<rect width="261" height="261" fill="white" transform="translate(4)"/>
</clipPath>
</defs>
</svg>
